G04 #@! TF.GenerationSoftware,KiCad,Pcbnew,(5.1.4-0-10_14)*
G04 #@! TF.CreationDate,2020-01-20T15:07:35+01:00*
G04 #@! TF.ProjectId,SIOSocket,53494f53-6f63-46b6-9574-2e6b69636164,rev?*
G04 #@! TF.SameCoordinates,Original*
G04 #@! TF.FileFunction,Legend,Top*
G04 #@! TF.FilePolarity,Positive*
%FSLAX46Y46*%
G04 Gerber Fmt 4.6, Leading zero omitted, Abs format (unit mm)*
G04 Created by KiCad (PCBNEW (5.1.4-0-10_14)) date 2020-01-20 15:07:35*
%MOMM*%
%LPD*%
G04 APERTURE LIST*
%ADD10C,0.120000*%
%ADD11C,0.150000*%
G04 APERTURE END LIST*
D10*
X133800000Y-104700000D02*
G75*
G02X133300000Y-104200000I0J500000D01*
G01*
X162300000Y-104200000D02*
G75*
G02X161800000Y-104700000I-500000J0D01*
G01*
X147800000Y-93000000D02*
X160300000Y-93000000D01*
X147800000Y-93000000D02*
X135300000Y-93000000D01*
X160300000Y-93000000D02*
G75*
G02X160800000Y-93500000I0J-500000D01*
G01*
X134800000Y-93500000D02*
G75*
G02X135300000Y-93000000I500000J0D01*
G01*
X134800000Y-93500000D02*
X133300000Y-104200000D01*
X162300000Y-104200000D02*
X160800000Y-93500000D01*
X133800000Y-104700000D02*
X161800000Y-104700000D01*
X132050000Y-104700000D02*
X164050000Y-104700000D01*
X164050000Y-104700000D02*
X164050000Y-92000000D01*
X164050000Y-92000000D02*
X132050000Y-92000000D01*
X132050000Y-92000000D02*
X132050000Y-104700000D01*
D11*
X137585714Y-102952380D02*
X137014285Y-102952380D01*
X137300000Y-102952380D02*
X137300000Y-101952380D01*
X137204761Y-102095238D01*
X137109523Y-102190476D01*
X137014285Y-102238095D01*
X140466666Y-101952380D02*
X141085714Y-101952380D01*
X140752380Y-102333333D01*
X140895238Y-102333333D01*
X140990476Y-102380952D01*
X141038095Y-102428571D01*
X141085714Y-102523809D01*
X141085714Y-102761904D01*
X141038095Y-102857142D01*
X140990476Y-102904761D01*
X140895238Y-102952380D01*
X140609523Y-102952380D01*
X140514285Y-102904761D01*
X140466666Y-102857142D01*
X144538095Y-101952380D02*
X144061904Y-101952380D01*
X144014285Y-102428571D01*
X144061904Y-102380952D01*
X144157142Y-102333333D01*
X144395238Y-102333333D01*
X144490476Y-102380952D01*
X144538095Y-102428571D01*
X144585714Y-102523809D01*
X144585714Y-102761904D01*
X144538095Y-102857142D01*
X144490476Y-102904761D01*
X144395238Y-102952380D01*
X144157142Y-102952380D01*
X144061904Y-102904761D01*
X144014285Y-102857142D01*
X147466666Y-101952380D02*
X148133333Y-101952380D01*
X147704761Y-102952380D01*
X151109523Y-102952380D02*
X151300000Y-102952380D01*
X151395238Y-102904761D01*
X151442857Y-102857142D01*
X151538095Y-102714285D01*
X151585714Y-102523809D01*
X151585714Y-102142857D01*
X151538095Y-102047619D01*
X151490476Y-102000000D01*
X151395238Y-101952380D01*
X151204761Y-101952380D01*
X151109523Y-102000000D01*
X151061904Y-102047619D01*
X151014285Y-102142857D01*
X151014285Y-102380952D01*
X151061904Y-102476190D01*
X151109523Y-102523809D01*
X151204761Y-102571428D01*
X151395238Y-102571428D01*
X151490476Y-102523809D01*
X151538095Y-102476190D01*
X151585714Y-102380952D01*
X154609523Y-102952380D02*
X154038095Y-102952380D01*
X154323809Y-102952380D02*
X154323809Y-101952380D01*
X154228571Y-102095238D01*
X154133333Y-102190476D01*
X154038095Y-102238095D01*
X155561904Y-102952380D02*
X154990476Y-102952380D01*
X155276190Y-102952380D02*
X155276190Y-101952380D01*
X155180952Y-102095238D01*
X155085714Y-102190476D01*
X154990476Y-102238095D01*
X158109523Y-102952380D02*
X157538095Y-102952380D01*
X157823809Y-102952380D02*
X157823809Y-101952380D01*
X157728571Y-102095238D01*
X157633333Y-102190476D01*
X157538095Y-102238095D01*
X158442857Y-101952380D02*
X159061904Y-101952380D01*
X158728571Y-102333333D01*
X158871428Y-102333333D01*
X158966666Y-102380952D01*
X159014285Y-102428571D01*
X159061904Y-102523809D01*
X159061904Y-102761904D01*
X159014285Y-102857142D01*
X158966666Y-102904761D01*
X158871428Y-102952380D01*
X158585714Y-102952380D01*
X158490476Y-102904761D01*
X158442857Y-102857142D01*
X138764285Y-95047619D02*
X138811904Y-95000000D01*
X138907142Y-94952380D01*
X139145238Y-94952380D01*
X139240476Y-95000000D01*
X139288095Y-95047619D01*
X139335714Y-95142857D01*
X139335714Y-95238095D01*
X139288095Y-95380952D01*
X138716666Y-95952380D01*
X139335714Y-95952380D01*
X142740476Y-95285714D02*
X142740476Y-95952380D01*
X142502380Y-94904761D02*
X142264285Y-95619047D01*
X142883333Y-95619047D01*
X146240476Y-94952380D02*
X146050000Y-94952380D01*
X145954761Y-95000000D01*
X145907142Y-95047619D01*
X145811904Y-95190476D01*
X145764285Y-95380952D01*
X145764285Y-95761904D01*
X145811904Y-95857142D01*
X145859523Y-95904761D01*
X145954761Y-95952380D01*
X146145238Y-95952380D01*
X146240476Y-95904761D01*
X146288095Y-95857142D01*
X146335714Y-95761904D01*
X146335714Y-95523809D01*
X146288095Y-95428571D01*
X146240476Y-95380952D01*
X146145238Y-95333333D01*
X145954761Y-95333333D01*
X145859523Y-95380952D01*
X145811904Y-95428571D01*
X145764285Y-95523809D01*
X149454761Y-95380952D02*
X149359523Y-95333333D01*
X149311904Y-95285714D01*
X149264285Y-95190476D01*
X149264285Y-95142857D01*
X149311904Y-95047619D01*
X149359523Y-95000000D01*
X149454761Y-94952380D01*
X149645238Y-94952380D01*
X149740476Y-95000000D01*
X149788095Y-95047619D01*
X149835714Y-95142857D01*
X149835714Y-95190476D01*
X149788095Y-95285714D01*
X149740476Y-95333333D01*
X149645238Y-95380952D01*
X149454761Y-95380952D01*
X149359523Y-95428571D01*
X149311904Y-95476190D01*
X149264285Y-95571428D01*
X149264285Y-95761904D01*
X149311904Y-95857142D01*
X149359523Y-95904761D01*
X149454761Y-95952380D01*
X149645238Y-95952380D01*
X149740476Y-95904761D01*
X149788095Y-95857142D01*
X149835714Y-95761904D01*
X149835714Y-95571428D01*
X149788095Y-95476190D01*
X149740476Y-95428571D01*
X149645238Y-95380952D01*
X152859523Y-95952380D02*
X152288095Y-95952380D01*
X152573809Y-95952380D02*
X152573809Y-94952380D01*
X152478571Y-95095238D01*
X152383333Y-95190476D01*
X152288095Y-95238095D01*
X153478571Y-94952380D02*
X153573809Y-94952380D01*
X153669047Y-95000000D01*
X153716666Y-95047619D01*
X153764285Y-95142857D01*
X153811904Y-95333333D01*
X153811904Y-95571428D01*
X153764285Y-95761904D01*
X153716666Y-95857142D01*
X153669047Y-95904761D01*
X153573809Y-95952380D01*
X153478571Y-95952380D01*
X153383333Y-95904761D01*
X153335714Y-95857142D01*
X153288095Y-95761904D01*
X153240476Y-95571428D01*
X153240476Y-95333333D01*
X153288095Y-95142857D01*
X153335714Y-95047619D01*
X153383333Y-95000000D01*
X153478571Y-94952380D01*
X156359523Y-95952380D02*
X155788095Y-95952380D01*
X156073809Y-95952380D02*
X156073809Y-94952380D01*
X155978571Y-95095238D01*
X155883333Y-95190476D01*
X155788095Y-95238095D01*
X156740476Y-95047619D02*
X156788095Y-95000000D01*
X156883333Y-94952380D01*
X157121428Y-94952380D01*
X157216666Y-95000000D01*
X157264285Y-95047619D01*
X157311904Y-95142857D01*
X157311904Y-95238095D01*
X157264285Y-95380952D01*
X156692857Y-95952380D01*
X157311904Y-95952380D01*
M02*
