G04 #@! TF.GenerationSoftware,KiCad,Pcbnew,(5.1.4-0-10_14)*
G04 #@! TF.CreationDate,2020-01-20T15:07:35+01:00*
G04 #@! TF.ProjectId,SIOSocket,53494f53-6f63-46b6-9574-2e6b69636164,rev?*
G04 #@! TF.SameCoordinates,Original*
G04 #@! TF.FileFunction,Copper,L2,Bot*
G04 #@! TF.FilePolarity,Positive*
%FSLAX46Y46*%
G04 Gerber Fmt 4.6, Leading zero omitted, Abs format (unit mm)*
G04 Created by KiCad (PCBNEW (5.1.4-0-10_14)) date 2020-01-20 15:07:35*
%MOMM*%
%LPD*%
G04 APERTURE LIST*
%ADD10C,1.700000*%
%ADD11R,1.700000X1.700000*%
%ADD12O,1.700000X1.700000*%
%ADD13C,0.250000*%
%ADD14C,0.200000*%
%ADD15C,0.350000*%
%ADD16C,0.254000*%
G04 APERTURE END LIST*
D10*
X139050000Y-97500000D03*
X142550000Y-97500000D03*
X146050000Y-97500000D03*
X149550000Y-97500000D03*
X153050000Y-97500000D03*
X156550000Y-97500000D03*
X137300000Y-100500000D03*
X140800000Y-100500000D03*
X144300000Y-100500000D03*
X147800000Y-100500000D03*
X151300000Y-100500000D03*
X154800000Y-100500000D03*
X158300000Y-100500000D03*
D11*
X140200000Y-86500000D03*
D12*
X140200000Y-89040000D03*
X142740000Y-86500000D03*
X142740000Y-89040000D03*
X145280000Y-86500000D03*
X145280000Y-89040000D03*
X147820000Y-86500000D03*
X147820000Y-89040000D03*
X150360000Y-86500000D03*
X150360000Y-89040000D03*
X152900000Y-86500000D03*
X152900000Y-89040000D03*
X155440000Y-86500000D03*
X155440000Y-89040000D03*
D13*
X139100000Y-86500000D02*
X140200000Y-86500000D01*
X137300000Y-88300000D02*
X139100000Y-86500000D01*
X137300000Y-100500000D02*
X137300000Y-88300000D01*
X139050000Y-90190000D02*
X140200000Y-89040000D01*
X139050000Y-97500000D02*
X139050000Y-90190000D01*
X141564999Y-90285001D02*
X141564999Y-87675001D01*
X140800000Y-91050000D02*
X141564999Y-90285001D01*
X141890001Y-87349999D02*
X142740000Y-86500000D01*
X141564999Y-87675001D02*
X141890001Y-87349999D01*
X140800000Y-100500000D02*
X140800000Y-91050000D01*
X144430001Y-87349999D02*
X145280000Y-86500000D01*
X144104999Y-87675001D02*
X144430001Y-87349999D01*
X144104999Y-100304999D02*
X144104999Y-87675001D01*
X144300000Y-100500000D02*
X144104999Y-100304999D01*
X146970001Y-87349999D02*
X147820000Y-86500000D01*
X146644999Y-87675001D02*
X146970001Y-87349999D01*
X146644999Y-89604001D02*
X146644999Y-87675001D01*
X147800000Y-90759002D02*
X146644999Y-89604001D01*
X147800000Y-100500000D02*
X147800000Y-90759002D01*
X149550000Y-90770000D02*
X147820000Y-89040000D01*
X149550000Y-97500000D02*
X149550000Y-90770000D01*
X149510001Y-87349999D02*
X150360000Y-86500000D01*
X149084999Y-89652001D02*
X149084999Y-87775001D01*
X151300000Y-100500000D02*
X150950000Y-100150000D01*
X150950000Y-100150000D02*
X150950000Y-91517002D01*
X149084999Y-87775001D02*
X149510001Y-87349999D01*
X150950000Y-91517002D02*
X149084999Y-89652001D01*
D14*
X154800000Y-100500000D02*
X154800000Y-92951000D01*
X151649999Y-89640001D02*
X154800000Y-92790002D01*
X151649999Y-87750001D02*
X151649999Y-89640001D01*
X154800000Y-92790002D02*
X154800000Y-93000000D01*
X152900000Y-86500000D02*
X151649999Y-87750001D01*
D13*
X158300000Y-89360000D02*
X158300000Y-100500000D01*
X155440000Y-86500000D02*
X158300000Y-89360000D01*
D15*
X150360000Y-89410000D02*
X150360000Y-89040000D01*
X153050000Y-97500000D02*
X151550000Y-96000000D01*
X151550000Y-90600000D02*
X150360000Y-89410000D01*
X151550000Y-96000000D02*
X151550000Y-90600000D01*
X156550000Y-92690000D02*
X152900000Y-89040000D01*
X156550000Y-97500000D02*
X156550000Y-92690000D01*
D16*
G36*
X169259659Y-84138625D02*
G01*
X169509429Y-84214035D01*
X169739792Y-84336522D01*
X169941980Y-84501422D01*
X170108286Y-84702450D01*
X170232378Y-84931954D01*
X170309531Y-85181195D01*
X170340000Y-85471089D01*
X170340001Y-99967581D01*
X170340000Y-102967721D01*
X170311375Y-103259660D01*
X170235965Y-103509429D01*
X170113477Y-103739794D01*
X169948579Y-103941979D01*
X169747546Y-104108288D01*
X169518046Y-104232378D01*
X169268805Y-104309531D01*
X168978911Y-104340000D01*
X127032279Y-104340000D01*
X126740340Y-104311375D01*
X126490571Y-104235965D01*
X126260206Y-104113477D01*
X126058021Y-103948579D01*
X125891712Y-103747546D01*
X125767622Y-103518046D01*
X125690469Y-103268805D01*
X125660000Y-102978911D01*
X125660000Y-100353740D01*
X135815000Y-100353740D01*
X135815000Y-100646260D01*
X135872068Y-100933158D01*
X135984010Y-101203411D01*
X136146525Y-101446632D01*
X136353368Y-101653475D01*
X136596589Y-101815990D01*
X136866842Y-101927932D01*
X137153740Y-101985000D01*
X137446260Y-101985000D01*
X137733158Y-101927932D01*
X138003411Y-101815990D01*
X138246632Y-101653475D01*
X138453475Y-101446632D01*
X138615990Y-101203411D01*
X138727932Y-100933158D01*
X138785000Y-100646260D01*
X138785000Y-100353740D01*
X138727932Y-100066842D01*
X138615990Y-99796589D01*
X138453475Y-99553368D01*
X138246632Y-99346525D01*
X138060000Y-99221822D01*
X138060000Y-98610107D01*
X138103368Y-98653475D01*
X138346589Y-98815990D01*
X138616842Y-98927932D01*
X138903740Y-98985000D01*
X139196260Y-98985000D01*
X139483158Y-98927932D01*
X139753411Y-98815990D01*
X139996632Y-98653475D01*
X140040000Y-98610107D01*
X140040000Y-99221821D01*
X139853368Y-99346525D01*
X139646525Y-99553368D01*
X139484010Y-99796589D01*
X139372068Y-100066842D01*
X139315000Y-100353740D01*
X139315000Y-100646260D01*
X139372068Y-100933158D01*
X139484010Y-101203411D01*
X139646525Y-101446632D01*
X139853368Y-101653475D01*
X140096589Y-101815990D01*
X140366842Y-101927932D01*
X140653740Y-101985000D01*
X140946260Y-101985000D01*
X141233158Y-101927932D01*
X141503411Y-101815990D01*
X141746632Y-101653475D01*
X141953475Y-101446632D01*
X142115990Y-101203411D01*
X142227932Y-100933158D01*
X142285000Y-100646260D01*
X142285000Y-100353740D01*
X142227932Y-100066842D01*
X142115990Y-99796589D01*
X141953475Y-99553368D01*
X141746632Y-99346525D01*
X141560000Y-99221822D01*
X141560000Y-98619400D01*
X141585104Y-98644504D01*
X141701209Y-98528399D01*
X141778843Y-98777472D01*
X142042883Y-98903371D01*
X142326411Y-98975339D01*
X142618531Y-98990611D01*
X142908019Y-98948599D01*
X143183747Y-98850919D01*
X143321157Y-98777472D01*
X143344999Y-98700980D01*
X143344999Y-99354894D01*
X143146525Y-99553368D01*
X142984010Y-99796589D01*
X142872068Y-100066842D01*
X142815000Y-100353740D01*
X142815000Y-100646260D01*
X142872068Y-100933158D01*
X142984010Y-101203411D01*
X143146525Y-101446632D01*
X143353368Y-101653475D01*
X143596589Y-101815990D01*
X143866842Y-101927932D01*
X144153740Y-101985000D01*
X144446260Y-101985000D01*
X144733158Y-101927932D01*
X145003411Y-101815990D01*
X145246632Y-101653475D01*
X145453475Y-101446632D01*
X145615990Y-101203411D01*
X145727932Y-100933158D01*
X145785000Y-100646260D01*
X145785000Y-100353740D01*
X145727932Y-100066842D01*
X145615990Y-99796589D01*
X145453475Y-99553368D01*
X145246632Y-99346525D01*
X145003411Y-99184010D01*
X144864999Y-99126678D01*
X144864999Y-98299980D01*
X145021603Y-98348792D01*
X145870395Y-97500000D01*
X145021603Y-96651208D01*
X144864999Y-96700020D01*
X144864999Y-90463850D01*
X144923110Y-90481476D01*
X145153000Y-90360155D01*
X145153000Y-89167000D01*
X145133000Y-89167000D01*
X145133000Y-88913000D01*
X145153000Y-88913000D01*
X145153000Y-88893000D01*
X145407000Y-88893000D01*
X145407000Y-88913000D01*
X145427000Y-88913000D01*
X145427000Y-89167000D01*
X145407000Y-89167000D01*
X145407000Y-90360155D01*
X145636890Y-90481476D01*
X145784099Y-90436825D01*
X146046920Y-90311641D01*
X146179184Y-90212987D01*
X147040001Y-91073805D01*
X147040000Y-96380600D01*
X147014896Y-96355496D01*
X146898791Y-96471601D01*
X146821157Y-96222528D01*
X146557117Y-96096629D01*
X146273589Y-96024661D01*
X145981469Y-96009389D01*
X145691981Y-96051401D01*
X145416253Y-96149081D01*
X145278843Y-96222528D01*
X145201208Y-96471603D01*
X146050000Y-97320395D01*
X146064143Y-97306253D01*
X146243748Y-97485858D01*
X146229605Y-97500000D01*
X146243748Y-97514143D01*
X146064143Y-97693748D01*
X146050000Y-97679605D01*
X145201208Y-98528397D01*
X145278843Y-98777472D01*
X145542883Y-98903371D01*
X145826411Y-98975339D01*
X146118531Y-98990611D01*
X146408019Y-98948599D01*
X146683747Y-98850919D01*
X146821157Y-98777472D01*
X146898791Y-98528399D01*
X147014896Y-98644504D01*
X147040000Y-98619400D01*
X147040000Y-99221821D01*
X146853368Y-99346525D01*
X146646525Y-99553368D01*
X146484010Y-99796589D01*
X146372068Y-100066842D01*
X146315000Y-100353740D01*
X146315000Y-100646260D01*
X146372068Y-100933158D01*
X146484010Y-101203411D01*
X146646525Y-101446632D01*
X146853368Y-101653475D01*
X147096589Y-101815990D01*
X147366842Y-101927932D01*
X147653740Y-101985000D01*
X147946260Y-101985000D01*
X148233158Y-101927932D01*
X148503411Y-101815990D01*
X148746632Y-101653475D01*
X148953475Y-101446632D01*
X149115990Y-101203411D01*
X149227932Y-100933158D01*
X149285000Y-100646260D01*
X149285000Y-100353740D01*
X149227932Y-100066842D01*
X149115990Y-99796589D01*
X148953475Y-99553368D01*
X148746632Y-99346525D01*
X148560000Y-99221822D01*
X148560000Y-98610107D01*
X148603368Y-98653475D01*
X148846589Y-98815990D01*
X149116842Y-98927932D01*
X149403740Y-98985000D01*
X149696260Y-98985000D01*
X149983158Y-98927932D01*
X150190000Y-98842256D01*
X150190000Y-99509893D01*
X150146525Y-99553368D01*
X149984010Y-99796589D01*
X149872068Y-100066842D01*
X149815000Y-100353740D01*
X149815000Y-100646260D01*
X149872068Y-100933158D01*
X149984010Y-101203411D01*
X150146525Y-101446632D01*
X150353368Y-101653475D01*
X150596589Y-101815990D01*
X150866842Y-101927932D01*
X151153740Y-101985000D01*
X151446260Y-101985000D01*
X151733158Y-101927932D01*
X152003411Y-101815990D01*
X152246632Y-101653475D01*
X152453475Y-101446632D01*
X152615990Y-101203411D01*
X152727932Y-100933158D01*
X152785000Y-100646260D01*
X152785000Y-100353740D01*
X152727932Y-100066842D01*
X152615990Y-99796589D01*
X152453475Y-99553368D01*
X152246632Y-99346525D01*
X152003411Y-99184010D01*
X151733158Y-99072068D01*
X151710000Y-99067462D01*
X151710000Y-98145445D01*
X151734010Y-98203411D01*
X151896525Y-98446632D01*
X152103368Y-98653475D01*
X152346589Y-98815990D01*
X152616842Y-98927932D01*
X152903740Y-98985000D01*
X153196260Y-98985000D01*
X153483158Y-98927932D01*
X153753411Y-98815990D01*
X153996632Y-98653475D01*
X154065000Y-98585107D01*
X154065000Y-99205117D01*
X153853368Y-99346525D01*
X153646525Y-99553368D01*
X153484010Y-99796589D01*
X153372068Y-100066842D01*
X153315000Y-100353740D01*
X153315000Y-100646260D01*
X153372068Y-100933158D01*
X153484010Y-101203411D01*
X153646525Y-101446632D01*
X153853368Y-101653475D01*
X154096589Y-101815990D01*
X154366842Y-101927932D01*
X154653740Y-101985000D01*
X154946260Y-101985000D01*
X155233158Y-101927932D01*
X155503411Y-101815990D01*
X155746632Y-101653475D01*
X155953475Y-101446632D01*
X156115990Y-101203411D01*
X156227932Y-100933158D01*
X156285000Y-100646260D01*
X156285000Y-100353740D01*
X156227932Y-100066842D01*
X156115990Y-99796589D01*
X155953475Y-99553368D01*
X155746632Y-99346525D01*
X155535000Y-99205117D01*
X155535000Y-98585107D01*
X155603368Y-98653475D01*
X155846589Y-98815990D01*
X156116842Y-98927932D01*
X156403740Y-98985000D01*
X156696260Y-98985000D01*
X156983158Y-98927932D01*
X157253411Y-98815990D01*
X157496632Y-98653475D01*
X157540001Y-98610106D01*
X157540001Y-99221821D01*
X157353368Y-99346525D01*
X157146525Y-99553368D01*
X156984010Y-99796589D01*
X156872068Y-100066842D01*
X156815000Y-100353740D01*
X156815000Y-100646260D01*
X156872068Y-100933158D01*
X156984010Y-101203411D01*
X157146525Y-101446632D01*
X157353368Y-101653475D01*
X157596589Y-101815990D01*
X157866842Y-101927932D01*
X158153740Y-101985000D01*
X158446260Y-101985000D01*
X158733158Y-101927932D01*
X159003411Y-101815990D01*
X159246632Y-101653475D01*
X159453475Y-101446632D01*
X159615990Y-101203411D01*
X159727932Y-100933158D01*
X159785000Y-100646260D01*
X159785000Y-100353740D01*
X159727932Y-100066842D01*
X159615990Y-99796589D01*
X159453475Y-99553368D01*
X159246632Y-99346525D01*
X159060000Y-99221822D01*
X159060000Y-95771620D01*
X165231220Y-95771620D01*
X165231220Y-96228380D01*
X165320329Y-96676363D01*
X165495123Y-97098354D01*
X165748886Y-97478136D01*
X166071864Y-97801114D01*
X166451646Y-98054877D01*
X166873637Y-98229671D01*
X167321620Y-98318780D01*
X167778380Y-98318780D01*
X168226363Y-98229671D01*
X168648354Y-98054877D01*
X169028136Y-97801114D01*
X169351114Y-97478136D01*
X169604877Y-97098354D01*
X169779671Y-96676363D01*
X169868780Y-96228380D01*
X169868780Y-95771620D01*
X169779671Y-95323637D01*
X169604877Y-94901646D01*
X169351114Y-94521864D01*
X169028136Y-94198886D01*
X168648354Y-93945123D01*
X168226363Y-93770329D01*
X167778380Y-93681220D01*
X167321620Y-93681220D01*
X166873637Y-93770329D01*
X166451646Y-93945123D01*
X166071864Y-94198886D01*
X165748886Y-94521864D01*
X165495123Y-94901646D01*
X165320329Y-95323637D01*
X165231220Y-95771620D01*
X159060000Y-95771620D01*
X159060000Y-89397325D01*
X159063676Y-89360000D01*
X159060000Y-89322675D01*
X159060000Y-89322667D01*
X159049003Y-89211014D01*
X159005546Y-89067753D01*
X158934974Y-88935724D01*
X158840001Y-88819999D01*
X158811004Y-88796202D01*
X156880797Y-86865996D01*
X156903513Y-86791111D01*
X156932185Y-86500000D01*
X156903513Y-86208889D01*
X156818599Y-85928966D01*
X156680706Y-85670986D01*
X156495134Y-85444866D01*
X156269014Y-85259294D01*
X156011034Y-85121401D01*
X155731111Y-85036487D01*
X155512950Y-85015000D01*
X155367050Y-85015000D01*
X155148889Y-85036487D01*
X154868966Y-85121401D01*
X154610986Y-85259294D01*
X154384866Y-85444866D01*
X154199294Y-85670986D01*
X154170000Y-85725791D01*
X154140706Y-85670986D01*
X153955134Y-85444866D01*
X153729014Y-85259294D01*
X153471034Y-85121401D01*
X153191111Y-85036487D01*
X152972950Y-85015000D01*
X152827050Y-85015000D01*
X152608889Y-85036487D01*
X152328966Y-85121401D01*
X152070986Y-85259294D01*
X151844866Y-85444866D01*
X151659294Y-85670986D01*
X151630000Y-85725791D01*
X151600706Y-85670986D01*
X151415134Y-85444866D01*
X151189014Y-85259294D01*
X150931034Y-85121401D01*
X150651111Y-85036487D01*
X150432950Y-85015000D01*
X150287050Y-85015000D01*
X150068889Y-85036487D01*
X149788966Y-85121401D01*
X149530986Y-85259294D01*
X149304866Y-85444866D01*
X149119294Y-85670986D01*
X149090000Y-85725791D01*
X149060706Y-85670986D01*
X148875134Y-85444866D01*
X148649014Y-85259294D01*
X148391034Y-85121401D01*
X148111111Y-85036487D01*
X147892950Y-85015000D01*
X147747050Y-85015000D01*
X147528889Y-85036487D01*
X147248966Y-85121401D01*
X146990986Y-85259294D01*
X146764866Y-85444866D01*
X146579294Y-85670986D01*
X146550000Y-85725791D01*
X146520706Y-85670986D01*
X146335134Y-85444866D01*
X146109014Y-85259294D01*
X145851034Y-85121401D01*
X145571111Y-85036487D01*
X145352950Y-85015000D01*
X145207050Y-85015000D01*
X144988889Y-85036487D01*
X144708966Y-85121401D01*
X144450986Y-85259294D01*
X144224866Y-85444866D01*
X144039294Y-85670986D01*
X144010000Y-85725791D01*
X143980706Y-85670986D01*
X143795134Y-85444866D01*
X143569014Y-85259294D01*
X143311034Y-85121401D01*
X143031111Y-85036487D01*
X142812950Y-85015000D01*
X142667050Y-85015000D01*
X142448889Y-85036487D01*
X142168966Y-85121401D01*
X141910986Y-85259294D01*
X141684866Y-85444866D01*
X141660393Y-85474687D01*
X141639502Y-85405820D01*
X141580537Y-85295506D01*
X141501185Y-85198815D01*
X141404494Y-85119463D01*
X141294180Y-85060498D01*
X141174482Y-85024188D01*
X141050000Y-85011928D01*
X139350000Y-85011928D01*
X139225518Y-85024188D01*
X139105820Y-85060498D01*
X138995506Y-85119463D01*
X138898815Y-85198815D01*
X138819463Y-85295506D01*
X138760498Y-85405820D01*
X138724188Y-85525518D01*
X138711928Y-85650000D01*
X138711928Y-85845674D01*
X138675724Y-85865026D01*
X138675722Y-85865027D01*
X138675723Y-85865027D01*
X138588996Y-85936201D01*
X138588992Y-85936205D01*
X138559999Y-85959999D01*
X138536205Y-85988992D01*
X136788998Y-87736201D01*
X136760000Y-87759999D01*
X136736202Y-87788997D01*
X136736201Y-87788998D01*
X136665026Y-87875724D01*
X136594454Y-88007754D01*
X136576408Y-88067247D01*
X136550998Y-88151014D01*
X136542352Y-88238800D01*
X136536324Y-88300000D01*
X136540001Y-88337332D01*
X136540000Y-99221821D01*
X136353368Y-99346525D01*
X136146525Y-99553368D01*
X135984010Y-99796589D01*
X135872068Y-100066842D01*
X135815000Y-100353740D01*
X125660000Y-100353740D01*
X125660000Y-95771620D01*
X126181220Y-95771620D01*
X126181220Y-96228380D01*
X126270329Y-96676363D01*
X126445123Y-97098354D01*
X126698886Y-97478136D01*
X127021864Y-97801114D01*
X127401646Y-98054877D01*
X127823637Y-98229671D01*
X128271620Y-98318780D01*
X128728380Y-98318780D01*
X129176363Y-98229671D01*
X129598354Y-98054877D01*
X129978136Y-97801114D01*
X130301114Y-97478136D01*
X130554877Y-97098354D01*
X130729671Y-96676363D01*
X130818780Y-96228380D01*
X130818780Y-95771620D01*
X130729671Y-95323637D01*
X130554877Y-94901646D01*
X130301114Y-94521864D01*
X129978136Y-94198886D01*
X129598354Y-93945123D01*
X129176363Y-93770329D01*
X128728380Y-93681220D01*
X128271620Y-93681220D01*
X127823637Y-93770329D01*
X127401646Y-93945123D01*
X127021864Y-94198886D01*
X126698886Y-94521864D01*
X126445123Y-94901646D01*
X126270329Y-95323637D01*
X126181220Y-95771620D01*
X125660000Y-95771620D01*
X125660000Y-85482279D01*
X125688625Y-85190341D01*
X125764035Y-84940571D01*
X125886522Y-84710208D01*
X126051422Y-84508020D01*
X126252450Y-84341714D01*
X126481954Y-84217622D01*
X126731195Y-84140469D01*
X126859344Y-84127000D01*
X169141099Y-84127000D01*
X169259659Y-84138625D01*
X169259659Y-84138625D01*
G37*
X169259659Y-84138625D02*
X169509429Y-84214035D01*
X169739792Y-84336522D01*
X169941980Y-84501422D01*
X170108286Y-84702450D01*
X170232378Y-84931954D01*
X170309531Y-85181195D01*
X170340000Y-85471089D01*
X170340001Y-99967581D01*
X170340000Y-102967721D01*
X170311375Y-103259660D01*
X170235965Y-103509429D01*
X170113477Y-103739794D01*
X169948579Y-103941979D01*
X169747546Y-104108288D01*
X169518046Y-104232378D01*
X169268805Y-104309531D01*
X168978911Y-104340000D01*
X127032279Y-104340000D01*
X126740340Y-104311375D01*
X126490571Y-104235965D01*
X126260206Y-104113477D01*
X126058021Y-103948579D01*
X125891712Y-103747546D01*
X125767622Y-103518046D01*
X125690469Y-103268805D01*
X125660000Y-102978911D01*
X125660000Y-100353740D01*
X135815000Y-100353740D01*
X135815000Y-100646260D01*
X135872068Y-100933158D01*
X135984010Y-101203411D01*
X136146525Y-101446632D01*
X136353368Y-101653475D01*
X136596589Y-101815990D01*
X136866842Y-101927932D01*
X137153740Y-101985000D01*
X137446260Y-101985000D01*
X137733158Y-101927932D01*
X138003411Y-101815990D01*
X138246632Y-101653475D01*
X138453475Y-101446632D01*
X138615990Y-101203411D01*
X138727932Y-100933158D01*
X138785000Y-100646260D01*
X138785000Y-100353740D01*
X138727932Y-100066842D01*
X138615990Y-99796589D01*
X138453475Y-99553368D01*
X138246632Y-99346525D01*
X138060000Y-99221822D01*
X138060000Y-98610107D01*
X138103368Y-98653475D01*
X138346589Y-98815990D01*
X138616842Y-98927932D01*
X138903740Y-98985000D01*
X139196260Y-98985000D01*
X139483158Y-98927932D01*
X139753411Y-98815990D01*
X139996632Y-98653475D01*
X140040000Y-98610107D01*
X140040000Y-99221821D01*
X139853368Y-99346525D01*
X139646525Y-99553368D01*
X139484010Y-99796589D01*
X139372068Y-100066842D01*
X139315000Y-100353740D01*
X139315000Y-100646260D01*
X139372068Y-100933158D01*
X139484010Y-101203411D01*
X139646525Y-101446632D01*
X139853368Y-101653475D01*
X140096589Y-101815990D01*
X140366842Y-101927932D01*
X140653740Y-101985000D01*
X140946260Y-101985000D01*
X141233158Y-101927932D01*
X141503411Y-101815990D01*
X141746632Y-101653475D01*
X141953475Y-101446632D01*
X142115990Y-101203411D01*
X142227932Y-100933158D01*
X142285000Y-100646260D01*
X142285000Y-100353740D01*
X142227932Y-100066842D01*
X142115990Y-99796589D01*
X141953475Y-99553368D01*
X141746632Y-99346525D01*
X141560000Y-99221822D01*
X141560000Y-98619400D01*
X141585104Y-98644504D01*
X141701209Y-98528399D01*
X141778843Y-98777472D01*
X142042883Y-98903371D01*
X142326411Y-98975339D01*
X142618531Y-98990611D01*
X142908019Y-98948599D01*
X143183747Y-98850919D01*
X143321157Y-98777472D01*
X143344999Y-98700980D01*
X143344999Y-99354894D01*
X143146525Y-99553368D01*
X142984010Y-99796589D01*
X142872068Y-100066842D01*
X142815000Y-100353740D01*
X142815000Y-100646260D01*
X142872068Y-100933158D01*
X142984010Y-101203411D01*
X143146525Y-101446632D01*
X143353368Y-101653475D01*
X143596589Y-101815990D01*
X143866842Y-101927932D01*
X144153740Y-101985000D01*
X144446260Y-101985000D01*
X144733158Y-101927932D01*
X145003411Y-101815990D01*
X145246632Y-101653475D01*
X145453475Y-101446632D01*
X145615990Y-101203411D01*
X145727932Y-100933158D01*
X145785000Y-100646260D01*
X145785000Y-100353740D01*
X145727932Y-100066842D01*
X145615990Y-99796589D01*
X145453475Y-99553368D01*
X145246632Y-99346525D01*
X145003411Y-99184010D01*
X144864999Y-99126678D01*
X144864999Y-98299980D01*
X145021603Y-98348792D01*
X145870395Y-97500000D01*
X145021603Y-96651208D01*
X144864999Y-96700020D01*
X144864999Y-90463850D01*
X144923110Y-90481476D01*
X145153000Y-90360155D01*
X145153000Y-89167000D01*
X145133000Y-89167000D01*
X145133000Y-88913000D01*
X145153000Y-88913000D01*
X145153000Y-88893000D01*
X145407000Y-88893000D01*
X145407000Y-88913000D01*
X145427000Y-88913000D01*
X145427000Y-89167000D01*
X145407000Y-89167000D01*
X145407000Y-90360155D01*
X145636890Y-90481476D01*
X145784099Y-90436825D01*
X146046920Y-90311641D01*
X146179184Y-90212987D01*
X147040001Y-91073805D01*
X147040000Y-96380600D01*
X147014896Y-96355496D01*
X146898791Y-96471601D01*
X146821157Y-96222528D01*
X146557117Y-96096629D01*
X146273589Y-96024661D01*
X145981469Y-96009389D01*
X145691981Y-96051401D01*
X145416253Y-96149081D01*
X145278843Y-96222528D01*
X145201208Y-96471603D01*
X146050000Y-97320395D01*
X146064143Y-97306253D01*
X146243748Y-97485858D01*
X146229605Y-97500000D01*
X146243748Y-97514143D01*
X146064143Y-97693748D01*
X146050000Y-97679605D01*
X145201208Y-98528397D01*
X145278843Y-98777472D01*
X145542883Y-98903371D01*
X145826411Y-98975339D01*
X146118531Y-98990611D01*
X146408019Y-98948599D01*
X146683747Y-98850919D01*
X146821157Y-98777472D01*
X146898791Y-98528399D01*
X147014896Y-98644504D01*
X147040000Y-98619400D01*
X147040000Y-99221821D01*
X146853368Y-99346525D01*
X146646525Y-99553368D01*
X146484010Y-99796589D01*
X146372068Y-100066842D01*
X146315000Y-100353740D01*
X146315000Y-100646260D01*
X146372068Y-100933158D01*
X146484010Y-101203411D01*
X146646525Y-101446632D01*
X146853368Y-101653475D01*
X147096589Y-101815990D01*
X147366842Y-101927932D01*
X147653740Y-101985000D01*
X147946260Y-101985000D01*
X148233158Y-101927932D01*
X148503411Y-101815990D01*
X148746632Y-101653475D01*
X148953475Y-101446632D01*
X149115990Y-101203411D01*
X149227932Y-100933158D01*
X149285000Y-100646260D01*
X149285000Y-100353740D01*
X149227932Y-100066842D01*
X149115990Y-99796589D01*
X148953475Y-99553368D01*
X148746632Y-99346525D01*
X148560000Y-99221822D01*
X148560000Y-98610107D01*
X148603368Y-98653475D01*
X148846589Y-98815990D01*
X149116842Y-98927932D01*
X149403740Y-98985000D01*
X149696260Y-98985000D01*
X149983158Y-98927932D01*
X150190000Y-98842256D01*
X150190000Y-99509893D01*
X150146525Y-99553368D01*
X149984010Y-99796589D01*
X149872068Y-100066842D01*
X149815000Y-100353740D01*
X149815000Y-100646260D01*
X149872068Y-100933158D01*
X149984010Y-101203411D01*
X150146525Y-101446632D01*
X150353368Y-101653475D01*
X150596589Y-101815990D01*
X150866842Y-101927932D01*
X151153740Y-101985000D01*
X151446260Y-101985000D01*
X151733158Y-101927932D01*
X152003411Y-101815990D01*
X152246632Y-101653475D01*
X152453475Y-101446632D01*
X152615990Y-101203411D01*
X152727932Y-100933158D01*
X152785000Y-100646260D01*
X152785000Y-100353740D01*
X152727932Y-100066842D01*
X152615990Y-99796589D01*
X152453475Y-99553368D01*
X152246632Y-99346525D01*
X152003411Y-99184010D01*
X151733158Y-99072068D01*
X151710000Y-99067462D01*
X151710000Y-98145445D01*
X151734010Y-98203411D01*
X151896525Y-98446632D01*
X152103368Y-98653475D01*
X152346589Y-98815990D01*
X152616842Y-98927932D01*
X152903740Y-98985000D01*
X153196260Y-98985000D01*
X153483158Y-98927932D01*
X153753411Y-98815990D01*
X153996632Y-98653475D01*
X154065000Y-98585107D01*
X154065000Y-99205117D01*
X153853368Y-99346525D01*
X153646525Y-99553368D01*
X153484010Y-99796589D01*
X153372068Y-100066842D01*
X153315000Y-100353740D01*
X153315000Y-100646260D01*
X153372068Y-100933158D01*
X153484010Y-101203411D01*
X153646525Y-101446632D01*
X153853368Y-101653475D01*
X154096589Y-101815990D01*
X154366842Y-101927932D01*
X154653740Y-101985000D01*
X154946260Y-101985000D01*
X155233158Y-101927932D01*
X155503411Y-101815990D01*
X155746632Y-101653475D01*
X155953475Y-101446632D01*
X156115990Y-101203411D01*
X156227932Y-100933158D01*
X156285000Y-100646260D01*
X156285000Y-100353740D01*
X156227932Y-100066842D01*
X156115990Y-99796589D01*
X155953475Y-99553368D01*
X155746632Y-99346525D01*
X155535000Y-99205117D01*
X155535000Y-98585107D01*
X155603368Y-98653475D01*
X155846589Y-98815990D01*
X156116842Y-98927932D01*
X156403740Y-98985000D01*
X156696260Y-98985000D01*
X156983158Y-98927932D01*
X157253411Y-98815990D01*
X157496632Y-98653475D01*
X157540001Y-98610106D01*
X157540001Y-99221821D01*
X157353368Y-99346525D01*
X157146525Y-99553368D01*
X156984010Y-99796589D01*
X156872068Y-100066842D01*
X156815000Y-100353740D01*
X156815000Y-100646260D01*
X156872068Y-100933158D01*
X156984010Y-101203411D01*
X157146525Y-101446632D01*
X157353368Y-101653475D01*
X157596589Y-101815990D01*
X157866842Y-101927932D01*
X158153740Y-101985000D01*
X158446260Y-101985000D01*
X158733158Y-101927932D01*
X159003411Y-101815990D01*
X159246632Y-101653475D01*
X159453475Y-101446632D01*
X159615990Y-101203411D01*
X159727932Y-100933158D01*
X159785000Y-100646260D01*
X159785000Y-100353740D01*
X159727932Y-100066842D01*
X159615990Y-99796589D01*
X159453475Y-99553368D01*
X159246632Y-99346525D01*
X159060000Y-99221822D01*
X159060000Y-95771620D01*
X165231220Y-95771620D01*
X165231220Y-96228380D01*
X165320329Y-96676363D01*
X165495123Y-97098354D01*
X165748886Y-97478136D01*
X166071864Y-97801114D01*
X166451646Y-98054877D01*
X166873637Y-98229671D01*
X167321620Y-98318780D01*
X167778380Y-98318780D01*
X168226363Y-98229671D01*
X168648354Y-98054877D01*
X169028136Y-97801114D01*
X169351114Y-97478136D01*
X169604877Y-97098354D01*
X169779671Y-96676363D01*
X169868780Y-96228380D01*
X169868780Y-95771620D01*
X169779671Y-95323637D01*
X169604877Y-94901646D01*
X169351114Y-94521864D01*
X169028136Y-94198886D01*
X168648354Y-93945123D01*
X168226363Y-93770329D01*
X167778380Y-93681220D01*
X167321620Y-93681220D01*
X166873637Y-93770329D01*
X166451646Y-93945123D01*
X166071864Y-94198886D01*
X165748886Y-94521864D01*
X165495123Y-94901646D01*
X165320329Y-95323637D01*
X165231220Y-95771620D01*
X159060000Y-95771620D01*
X159060000Y-89397325D01*
X159063676Y-89360000D01*
X159060000Y-89322675D01*
X159060000Y-89322667D01*
X159049003Y-89211014D01*
X159005546Y-89067753D01*
X158934974Y-88935724D01*
X158840001Y-88819999D01*
X158811004Y-88796202D01*
X156880797Y-86865996D01*
X156903513Y-86791111D01*
X156932185Y-86500000D01*
X156903513Y-86208889D01*
X156818599Y-85928966D01*
X156680706Y-85670986D01*
X156495134Y-85444866D01*
X156269014Y-85259294D01*
X156011034Y-85121401D01*
X155731111Y-85036487D01*
X155512950Y-85015000D01*
X155367050Y-85015000D01*
X155148889Y-85036487D01*
X154868966Y-85121401D01*
X154610986Y-85259294D01*
X154384866Y-85444866D01*
X154199294Y-85670986D01*
X154170000Y-85725791D01*
X154140706Y-85670986D01*
X153955134Y-85444866D01*
X153729014Y-85259294D01*
X153471034Y-85121401D01*
X153191111Y-85036487D01*
X152972950Y-85015000D01*
X152827050Y-85015000D01*
X152608889Y-85036487D01*
X152328966Y-85121401D01*
X152070986Y-85259294D01*
X151844866Y-85444866D01*
X151659294Y-85670986D01*
X151630000Y-85725791D01*
X151600706Y-85670986D01*
X151415134Y-85444866D01*
X151189014Y-85259294D01*
X150931034Y-85121401D01*
X150651111Y-85036487D01*
X150432950Y-85015000D01*
X150287050Y-85015000D01*
X150068889Y-85036487D01*
X149788966Y-85121401D01*
X149530986Y-85259294D01*
X149304866Y-85444866D01*
X149119294Y-85670986D01*
X149090000Y-85725791D01*
X149060706Y-85670986D01*
X148875134Y-85444866D01*
X148649014Y-85259294D01*
X148391034Y-85121401D01*
X148111111Y-85036487D01*
X147892950Y-85015000D01*
X147747050Y-85015000D01*
X147528889Y-85036487D01*
X147248966Y-85121401D01*
X146990986Y-85259294D01*
X146764866Y-85444866D01*
X146579294Y-85670986D01*
X146550000Y-85725791D01*
X146520706Y-85670986D01*
X146335134Y-85444866D01*
X146109014Y-85259294D01*
X145851034Y-85121401D01*
X145571111Y-85036487D01*
X145352950Y-85015000D01*
X145207050Y-85015000D01*
X144988889Y-85036487D01*
X144708966Y-85121401D01*
X144450986Y-85259294D01*
X144224866Y-85444866D01*
X144039294Y-85670986D01*
X144010000Y-85725791D01*
X143980706Y-85670986D01*
X143795134Y-85444866D01*
X143569014Y-85259294D01*
X143311034Y-85121401D01*
X143031111Y-85036487D01*
X142812950Y-85015000D01*
X142667050Y-85015000D01*
X142448889Y-85036487D01*
X142168966Y-85121401D01*
X141910986Y-85259294D01*
X141684866Y-85444866D01*
X141660393Y-85474687D01*
X141639502Y-85405820D01*
X141580537Y-85295506D01*
X141501185Y-85198815D01*
X141404494Y-85119463D01*
X141294180Y-85060498D01*
X141174482Y-85024188D01*
X141050000Y-85011928D01*
X139350000Y-85011928D01*
X139225518Y-85024188D01*
X139105820Y-85060498D01*
X138995506Y-85119463D01*
X138898815Y-85198815D01*
X138819463Y-85295506D01*
X138760498Y-85405820D01*
X138724188Y-85525518D01*
X138711928Y-85650000D01*
X138711928Y-85845674D01*
X138675724Y-85865026D01*
X138675722Y-85865027D01*
X138675723Y-85865027D01*
X138588996Y-85936201D01*
X138588992Y-85936205D01*
X138559999Y-85959999D01*
X138536205Y-85988992D01*
X136788998Y-87736201D01*
X136760000Y-87759999D01*
X136736202Y-87788997D01*
X136736201Y-87788998D01*
X136665026Y-87875724D01*
X136594454Y-88007754D01*
X136576408Y-88067247D01*
X136550998Y-88151014D01*
X136542352Y-88238800D01*
X136536324Y-88300000D01*
X136540001Y-88337332D01*
X136540000Y-99221821D01*
X136353368Y-99346525D01*
X136146525Y-99553368D01*
X135984010Y-99796589D01*
X135872068Y-100066842D01*
X135815000Y-100353740D01*
X125660000Y-100353740D01*
X125660000Y-95771620D01*
X126181220Y-95771620D01*
X126181220Y-96228380D01*
X126270329Y-96676363D01*
X126445123Y-97098354D01*
X126698886Y-97478136D01*
X127021864Y-97801114D01*
X127401646Y-98054877D01*
X127823637Y-98229671D01*
X128271620Y-98318780D01*
X128728380Y-98318780D01*
X129176363Y-98229671D01*
X129598354Y-98054877D01*
X129978136Y-97801114D01*
X130301114Y-97478136D01*
X130554877Y-97098354D01*
X130729671Y-96676363D01*
X130818780Y-96228380D01*
X130818780Y-95771620D01*
X130729671Y-95323637D01*
X130554877Y-94901646D01*
X130301114Y-94521864D01*
X129978136Y-94198886D01*
X129598354Y-93945123D01*
X129176363Y-93770329D01*
X128728380Y-93681220D01*
X128271620Y-93681220D01*
X127823637Y-93770329D01*
X127401646Y-93945123D01*
X127021864Y-94198886D01*
X126698886Y-94521864D01*
X126445123Y-94901646D01*
X126270329Y-95323637D01*
X126181220Y-95771620D01*
X125660000Y-95771620D01*
X125660000Y-85482279D01*
X125688625Y-85190341D01*
X125764035Y-84940571D01*
X125886522Y-84710208D01*
X126051422Y-84508020D01*
X126252450Y-84341714D01*
X126481954Y-84217622D01*
X126731195Y-84140469D01*
X126859344Y-84127000D01*
X169141099Y-84127000D01*
X169259659Y-84138625D01*
G36*
X142743748Y-97485858D02*
G01*
X142729605Y-97500000D01*
X142743748Y-97514143D01*
X142564143Y-97693748D01*
X142550000Y-97679605D01*
X142535858Y-97693748D01*
X142356253Y-97514143D01*
X142370395Y-97500000D01*
X142356253Y-97485858D01*
X142535858Y-97306253D01*
X142550000Y-97320395D01*
X142564143Y-97306253D01*
X142743748Y-97485858D01*
X142743748Y-97485858D01*
G37*
X142743748Y-97485858D02*
X142729605Y-97500000D01*
X142743748Y-97514143D01*
X142564143Y-97693748D01*
X142550000Y-97679605D01*
X142535858Y-97693748D01*
X142356253Y-97514143D01*
X142370395Y-97500000D01*
X142356253Y-97485858D01*
X142535858Y-97306253D01*
X142550000Y-97320395D01*
X142564143Y-97306253D01*
X142743748Y-97485858D01*
G36*
X142867000Y-88913000D02*
G01*
X142887000Y-88913000D01*
X142887000Y-89167000D01*
X142867000Y-89167000D01*
X142867000Y-90360155D01*
X143096890Y-90481476D01*
X143244099Y-90436825D01*
X143345000Y-90388765D01*
X143344999Y-96299021D01*
X143321157Y-96222528D01*
X143057117Y-96096629D01*
X142773589Y-96024661D01*
X142481469Y-96009389D01*
X142191981Y-96051401D01*
X141916253Y-96149081D01*
X141778843Y-96222528D01*
X141701209Y-96471601D01*
X141585104Y-96355496D01*
X141560000Y-96380600D01*
X141560000Y-91364801D01*
X142076003Y-90848799D01*
X142105000Y-90825002D01*
X142159166Y-90759001D01*
X142199973Y-90709278D01*
X142270545Y-90577248D01*
X142290944Y-90509999D01*
X142306633Y-90458279D01*
X142383110Y-90481476D01*
X142613000Y-90360155D01*
X142613000Y-89167000D01*
X142593000Y-89167000D01*
X142593000Y-88913000D01*
X142613000Y-88913000D01*
X142613000Y-88893000D01*
X142867000Y-88893000D01*
X142867000Y-88913000D01*
X142867000Y-88913000D01*
G37*
X142867000Y-88913000D02*
X142887000Y-88913000D01*
X142887000Y-89167000D01*
X142867000Y-89167000D01*
X142867000Y-90360155D01*
X143096890Y-90481476D01*
X143244099Y-90436825D01*
X143345000Y-90388765D01*
X143344999Y-96299021D01*
X143321157Y-96222528D01*
X143057117Y-96096629D01*
X142773589Y-96024661D01*
X142481469Y-96009389D01*
X142191981Y-96051401D01*
X141916253Y-96149081D01*
X141778843Y-96222528D01*
X141701209Y-96471601D01*
X141585104Y-96355496D01*
X141560000Y-96380600D01*
X141560000Y-91364801D01*
X142076003Y-90848799D01*
X142105000Y-90825002D01*
X142159166Y-90759001D01*
X142199973Y-90709278D01*
X142270545Y-90577248D01*
X142290944Y-90509999D01*
X142306633Y-90458279D01*
X142383110Y-90481476D01*
X142613000Y-90360155D01*
X142613000Y-89167000D01*
X142593000Y-89167000D01*
X142593000Y-88913000D01*
X142613000Y-88913000D01*
X142613000Y-88893000D01*
X142867000Y-88893000D01*
X142867000Y-88913000D01*
M02*
