M48
INCH
T1C0.0394
%
G90
G05
T1
X5.4055Y-3.9567
X5.4744Y-3.8386
X5.5433Y-3.9567
X5.6122Y-3.8386
X5.6811Y-3.9567
X5.75Y-3.8386
X5.8189Y-3.9567
X5.8878Y-3.8386
X5.9567Y-3.9567
X6.0256Y-3.8386
X6.0945Y-3.9567
X6.1634Y-3.8386
X6.2323Y-3.9567
X5.5197Y-3.4055
X5.5197Y-3.5055
X5.6197Y-3.4055
X5.6197Y-3.5055
X5.7197Y-3.4055
X5.7197Y-3.5055
X5.8197Y-3.4055
X5.8197Y-3.5055
X5.9197Y-3.4055
X5.9197Y-3.5055
X6.0197Y-3.4055
X6.0197Y-3.5055
X6.1197Y-3.4055
X6.1197Y-3.5055
T0
M30
