G04 #@! TF.GenerationSoftware,KiCad,Pcbnew,(5.1.4-0-10_14)*
G04 #@! TF.CreationDate,2020-01-20T15:07:35+01:00*
G04 #@! TF.ProjectId,SIOSocket,53494f53-6f63-46b6-9574-2e6b69636164,rev?*
G04 #@! TF.SameCoordinates,Original*
G04 #@! TF.FileFunction,Copper,L1,Top*
G04 #@! TF.FilePolarity,Positive*
%FSLAX46Y46*%
G04 Gerber Fmt 4.6, Leading zero omitted, Abs format (unit mm)*
G04 Created by KiCad (PCBNEW (5.1.4-0-10_14)) date 2020-01-20 15:07:35*
%MOMM*%
%LPD*%
G04 APERTURE LIST*
%ADD10C,1.700000*%
%ADD11R,1.700000X1.700000*%
%ADD12O,1.700000X1.700000*%
%ADD13C,0.254000*%
G04 APERTURE END LIST*
D10*
X139050000Y-97500000D03*
X142550000Y-97500000D03*
X146050000Y-97500000D03*
X149550000Y-97500000D03*
X153050000Y-97500000D03*
X156550000Y-97500000D03*
X137300000Y-100500000D03*
X140800000Y-100500000D03*
X144300000Y-100500000D03*
X147800000Y-100500000D03*
X151300000Y-100500000D03*
X154800000Y-100500000D03*
X158300000Y-100500000D03*
D11*
X140200000Y-86500000D03*
D12*
X140200000Y-89040000D03*
X142740000Y-86500000D03*
X142740000Y-89040000D03*
X145280000Y-86500000D03*
X145280000Y-89040000D03*
X147820000Y-86500000D03*
X147820000Y-89040000D03*
X150360000Y-86500000D03*
X150360000Y-89040000D03*
X152900000Y-86500000D03*
X152900000Y-89040000D03*
X155440000Y-86500000D03*
X155440000Y-89040000D03*
D13*
G36*
X169259659Y-84138625D02*
G01*
X169509429Y-84214035D01*
X169739792Y-84336522D01*
X169941980Y-84501422D01*
X170108286Y-84702450D01*
X170232378Y-84931954D01*
X170309531Y-85181195D01*
X170340000Y-85471089D01*
X170340001Y-99967581D01*
X170340000Y-102967721D01*
X170311375Y-103259660D01*
X170235965Y-103509429D01*
X170113477Y-103739794D01*
X169948579Y-103941979D01*
X169747546Y-104108288D01*
X169518046Y-104232378D01*
X169268805Y-104309531D01*
X168978911Y-104340000D01*
X127032279Y-104340000D01*
X126740340Y-104311375D01*
X126490571Y-104235965D01*
X126260206Y-104113477D01*
X126058021Y-103948579D01*
X125891712Y-103747546D01*
X125767622Y-103518046D01*
X125690469Y-103268805D01*
X125660000Y-102978911D01*
X125660000Y-100353740D01*
X135815000Y-100353740D01*
X135815000Y-100646260D01*
X135872068Y-100933158D01*
X135984010Y-101203411D01*
X136146525Y-101446632D01*
X136353368Y-101653475D01*
X136596589Y-101815990D01*
X136866842Y-101927932D01*
X137153740Y-101985000D01*
X137446260Y-101985000D01*
X137733158Y-101927932D01*
X138003411Y-101815990D01*
X138246632Y-101653475D01*
X138453475Y-101446632D01*
X138615990Y-101203411D01*
X138727932Y-100933158D01*
X138785000Y-100646260D01*
X138785000Y-100353740D01*
X139315000Y-100353740D01*
X139315000Y-100646260D01*
X139372068Y-100933158D01*
X139484010Y-101203411D01*
X139646525Y-101446632D01*
X139853368Y-101653475D01*
X140096589Y-101815990D01*
X140366842Y-101927932D01*
X140653740Y-101985000D01*
X140946260Y-101985000D01*
X141233158Y-101927932D01*
X141503411Y-101815990D01*
X141746632Y-101653475D01*
X141953475Y-101446632D01*
X142115990Y-101203411D01*
X142227932Y-100933158D01*
X142285000Y-100646260D01*
X142285000Y-100353740D01*
X142815000Y-100353740D01*
X142815000Y-100646260D01*
X142872068Y-100933158D01*
X142984010Y-101203411D01*
X143146525Y-101446632D01*
X143353368Y-101653475D01*
X143596589Y-101815990D01*
X143866842Y-101927932D01*
X144153740Y-101985000D01*
X144446260Y-101985000D01*
X144733158Y-101927932D01*
X145003411Y-101815990D01*
X145246632Y-101653475D01*
X145453475Y-101446632D01*
X145615990Y-101203411D01*
X145727932Y-100933158D01*
X145785000Y-100646260D01*
X145785000Y-100353740D01*
X146315000Y-100353740D01*
X146315000Y-100646260D01*
X146372068Y-100933158D01*
X146484010Y-101203411D01*
X146646525Y-101446632D01*
X146853368Y-101653475D01*
X147096589Y-101815990D01*
X147366842Y-101927932D01*
X147653740Y-101985000D01*
X147946260Y-101985000D01*
X148233158Y-101927932D01*
X148503411Y-101815990D01*
X148746632Y-101653475D01*
X148953475Y-101446632D01*
X149115990Y-101203411D01*
X149227932Y-100933158D01*
X149285000Y-100646260D01*
X149285000Y-100353740D01*
X149815000Y-100353740D01*
X149815000Y-100646260D01*
X149872068Y-100933158D01*
X149984010Y-101203411D01*
X150146525Y-101446632D01*
X150353368Y-101653475D01*
X150596589Y-101815990D01*
X150866842Y-101927932D01*
X151153740Y-101985000D01*
X151446260Y-101985000D01*
X151733158Y-101927932D01*
X152003411Y-101815990D01*
X152246632Y-101653475D01*
X152453475Y-101446632D01*
X152615990Y-101203411D01*
X152727932Y-100933158D01*
X152785000Y-100646260D01*
X152785000Y-100353740D01*
X153315000Y-100353740D01*
X153315000Y-100646260D01*
X153372068Y-100933158D01*
X153484010Y-101203411D01*
X153646525Y-101446632D01*
X153853368Y-101653475D01*
X154096589Y-101815990D01*
X154366842Y-101927932D01*
X154653740Y-101985000D01*
X154946260Y-101985000D01*
X155233158Y-101927932D01*
X155503411Y-101815990D01*
X155746632Y-101653475D01*
X155953475Y-101446632D01*
X156115990Y-101203411D01*
X156227932Y-100933158D01*
X156285000Y-100646260D01*
X156285000Y-100353740D01*
X156815000Y-100353740D01*
X156815000Y-100646260D01*
X156872068Y-100933158D01*
X156984010Y-101203411D01*
X157146525Y-101446632D01*
X157353368Y-101653475D01*
X157596589Y-101815990D01*
X157866842Y-101927932D01*
X158153740Y-101985000D01*
X158446260Y-101985000D01*
X158733158Y-101927932D01*
X159003411Y-101815990D01*
X159246632Y-101653475D01*
X159453475Y-101446632D01*
X159615990Y-101203411D01*
X159727932Y-100933158D01*
X159785000Y-100646260D01*
X159785000Y-100353740D01*
X159727932Y-100066842D01*
X159615990Y-99796589D01*
X159453475Y-99553368D01*
X159246632Y-99346525D01*
X159003411Y-99184010D01*
X158733158Y-99072068D01*
X158446260Y-99015000D01*
X158153740Y-99015000D01*
X157866842Y-99072068D01*
X157596589Y-99184010D01*
X157353368Y-99346525D01*
X157146525Y-99553368D01*
X156984010Y-99796589D01*
X156872068Y-100066842D01*
X156815000Y-100353740D01*
X156285000Y-100353740D01*
X156227932Y-100066842D01*
X156115990Y-99796589D01*
X155953475Y-99553368D01*
X155746632Y-99346525D01*
X155503411Y-99184010D01*
X155233158Y-99072068D01*
X154946260Y-99015000D01*
X154653740Y-99015000D01*
X154366842Y-99072068D01*
X154096589Y-99184010D01*
X153853368Y-99346525D01*
X153646525Y-99553368D01*
X153484010Y-99796589D01*
X153372068Y-100066842D01*
X153315000Y-100353740D01*
X152785000Y-100353740D01*
X152727932Y-100066842D01*
X152615990Y-99796589D01*
X152453475Y-99553368D01*
X152246632Y-99346525D01*
X152003411Y-99184010D01*
X151733158Y-99072068D01*
X151446260Y-99015000D01*
X151153740Y-99015000D01*
X150866842Y-99072068D01*
X150596589Y-99184010D01*
X150353368Y-99346525D01*
X150146525Y-99553368D01*
X149984010Y-99796589D01*
X149872068Y-100066842D01*
X149815000Y-100353740D01*
X149285000Y-100353740D01*
X149227932Y-100066842D01*
X149115990Y-99796589D01*
X148953475Y-99553368D01*
X148746632Y-99346525D01*
X148503411Y-99184010D01*
X148233158Y-99072068D01*
X147946260Y-99015000D01*
X147653740Y-99015000D01*
X147366842Y-99072068D01*
X147096589Y-99184010D01*
X146853368Y-99346525D01*
X146646525Y-99553368D01*
X146484010Y-99796589D01*
X146372068Y-100066842D01*
X146315000Y-100353740D01*
X145785000Y-100353740D01*
X145727932Y-100066842D01*
X145615990Y-99796589D01*
X145453475Y-99553368D01*
X145246632Y-99346525D01*
X145003411Y-99184010D01*
X144733158Y-99072068D01*
X144446260Y-99015000D01*
X144153740Y-99015000D01*
X143866842Y-99072068D01*
X143596589Y-99184010D01*
X143353368Y-99346525D01*
X143146525Y-99553368D01*
X142984010Y-99796589D01*
X142872068Y-100066842D01*
X142815000Y-100353740D01*
X142285000Y-100353740D01*
X142227932Y-100066842D01*
X142115990Y-99796589D01*
X141953475Y-99553368D01*
X141746632Y-99346525D01*
X141503411Y-99184010D01*
X141233158Y-99072068D01*
X140946260Y-99015000D01*
X140653740Y-99015000D01*
X140366842Y-99072068D01*
X140096589Y-99184010D01*
X139853368Y-99346525D01*
X139646525Y-99553368D01*
X139484010Y-99796589D01*
X139372068Y-100066842D01*
X139315000Y-100353740D01*
X138785000Y-100353740D01*
X138727932Y-100066842D01*
X138615990Y-99796589D01*
X138453475Y-99553368D01*
X138246632Y-99346525D01*
X138003411Y-99184010D01*
X137733158Y-99072068D01*
X137446260Y-99015000D01*
X137153740Y-99015000D01*
X136866842Y-99072068D01*
X136596589Y-99184010D01*
X136353368Y-99346525D01*
X136146525Y-99553368D01*
X135984010Y-99796589D01*
X135872068Y-100066842D01*
X135815000Y-100353740D01*
X125660000Y-100353740D01*
X125660000Y-95771620D01*
X126181220Y-95771620D01*
X126181220Y-96228380D01*
X126270329Y-96676363D01*
X126445123Y-97098354D01*
X126698886Y-97478136D01*
X127021864Y-97801114D01*
X127401646Y-98054877D01*
X127823637Y-98229671D01*
X128271620Y-98318780D01*
X128728380Y-98318780D01*
X129176363Y-98229671D01*
X129598354Y-98054877D01*
X129978136Y-97801114D01*
X130301114Y-97478136D01*
X130384233Y-97353740D01*
X137565000Y-97353740D01*
X137565000Y-97646260D01*
X137622068Y-97933158D01*
X137734010Y-98203411D01*
X137896525Y-98446632D01*
X138103368Y-98653475D01*
X138346589Y-98815990D01*
X138616842Y-98927932D01*
X138903740Y-98985000D01*
X139196260Y-98985000D01*
X139483158Y-98927932D01*
X139753411Y-98815990D01*
X139996632Y-98653475D01*
X140121710Y-98528397D01*
X141701208Y-98528397D01*
X141778843Y-98777472D01*
X142042883Y-98903371D01*
X142326411Y-98975339D01*
X142618531Y-98990611D01*
X142908019Y-98948599D01*
X143183747Y-98850919D01*
X143321157Y-98777472D01*
X143398792Y-98528397D01*
X145201208Y-98528397D01*
X145278843Y-98777472D01*
X145542883Y-98903371D01*
X145826411Y-98975339D01*
X146118531Y-98990611D01*
X146408019Y-98948599D01*
X146683747Y-98850919D01*
X146821157Y-98777472D01*
X146898792Y-98528397D01*
X146050000Y-97679605D01*
X145201208Y-98528397D01*
X143398792Y-98528397D01*
X142550000Y-97679605D01*
X141701208Y-98528397D01*
X140121710Y-98528397D01*
X140203475Y-98446632D01*
X140365990Y-98203411D01*
X140477932Y-97933158D01*
X140535000Y-97646260D01*
X140535000Y-97568531D01*
X141059389Y-97568531D01*
X141101401Y-97858019D01*
X141199081Y-98133747D01*
X141272528Y-98271157D01*
X141521603Y-98348792D01*
X142370395Y-97500000D01*
X142729605Y-97500000D01*
X143578397Y-98348792D01*
X143827472Y-98271157D01*
X143953371Y-98007117D01*
X144025339Y-97723589D01*
X144033445Y-97568531D01*
X144559389Y-97568531D01*
X144601401Y-97858019D01*
X144699081Y-98133747D01*
X144772528Y-98271157D01*
X145021603Y-98348792D01*
X145870395Y-97500000D01*
X146229605Y-97500000D01*
X147078397Y-98348792D01*
X147327472Y-98271157D01*
X147453371Y-98007117D01*
X147525339Y-97723589D01*
X147540611Y-97431469D01*
X147529331Y-97353740D01*
X148065000Y-97353740D01*
X148065000Y-97646260D01*
X148122068Y-97933158D01*
X148234010Y-98203411D01*
X148396525Y-98446632D01*
X148603368Y-98653475D01*
X148846589Y-98815990D01*
X149116842Y-98927932D01*
X149403740Y-98985000D01*
X149696260Y-98985000D01*
X149983158Y-98927932D01*
X150253411Y-98815990D01*
X150496632Y-98653475D01*
X150703475Y-98446632D01*
X150865990Y-98203411D01*
X150977932Y-97933158D01*
X151035000Y-97646260D01*
X151035000Y-97353740D01*
X151565000Y-97353740D01*
X151565000Y-97646260D01*
X151622068Y-97933158D01*
X151734010Y-98203411D01*
X151896525Y-98446632D01*
X152103368Y-98653475D01*
X152346589Y-98815990D01*
X152616842Y-98927932D01*
X152903740Y-98985000D01*
X153196260Y-98985000D01*
X153483158Y-98927932D01*
X153753411Y-98815990D01*
X153996632Y-98653475D01*
X154203475Y-98446632D01*
X154365990Y-98203411D01*
X154477932Y-97933158D01*
X154535000Y-97646260D01*
X154535000Y-97353740D01*
X155065000Y-97353740D01*
X155065000Y-97646260D01*
X155122068Y-97933158D01*
X155234010Y-98203411D01*
X155396525Y-98446632D01*
X155603368Y-98653475D01*
X155846589Y-98815990D01*
X156116842Y-98927932D01*
X156403740Y-98985000D01*
X156696260Y-98985000D01*
X156983158Y-98927932D01*
X157253411Y-98815990D01*
X157496632Y-98653475D01*
X157703475Y-98446632D01*
X157865990Y-98203411D01*
X157977932Y-97933158D01*
X158035000Y-97646260D01*
X158035000Y-97353740D01*
X157977932Y-97066842D01*
X157865990Y-96796589D01*
X157703475Y-96553368D01*
X157496632Y-96346525D01*
X157253411Y-96184010D01*
X156983158Y-96072068D01*
X156696260Y-96015000D01*
X156403740Y-96015000D01*
X156116842Y-96072068D01*
X155846589Y-96184010D01*
X155603368Y-96346525D01*
X155396525Y-96553368D01*
X155234010Y-96796589D01*
X155122068Y-97066842D01*
X155065000Y-97353740D01*
X154535000Y-97353740D01*
X154477932Y-97066842D01*
X154365990Y-96796589D01*
X154203475Y-96553368D01*
X153996632Y-96346525D01*
X153753411Y-96184010D01*
X153483158Y-96072068D01*
X153196260Y-96015000D01*
X152903740Y-96015000D01*
X152616842Y-96072068D01*
X152346589Y-96184010D01*
X152103368Y-96346525D01*
X151896525Y-96553368D01*
X151734010Y-96796589D01*
X151622068Y-97066842D01*
X151565000Y-97353740D01*
X151035000Y-97353740D01*
X150977932Y-97066842D01*
X150865990Y-96796589D01*
X150703475Y-96553368D01*
X150496632Y-96346525D01*
X150253411Y-96184010D01*
X149983158Y-96072068D01*
X149696260Y-96015000D01*
X149403740Y-96015000D01*
X149116842Y-96072068D01*
X148846589Y-96184010D01*
X148603368Y-96346525D01*
X148396525Y-96553368D01*
X148234010Y-96796589D01*
X148122068Y-97066842D01*
X148065000Y-97353740D01*
X147529331Y-97353740D01*
X147498599Y-97141981D01*
X147400919Y-96866253D01*
X147327472Y-96728843D01*
X147078397Y-96651208D01*
X146229605Y-97500000D01*
X145870395Y-97500000D01*
X145021603Y-96651208D01*
X144772528Y-96728843D01*
X144646629Y-96992883D01*
X144574661Y-97276411D01*
X144559389Y-97568531D01*
X144033445Y-97568531D01*
X144040611Y-97431469D01*
X143998599Y-97141981D01*
X143900919Y-96866253D01*
X143827472Y-96728843D01*
X143578397Y-96651208D01*
X142729605Y-97500000D01*
X142370395Y-97500000D01*
X141521603Y-96651208D01*
X141272528Y-96728843D01*
X141146629Y-96992883D01*
X141074661Y-97276411D01*
X141059389Y-97568531D01*
X140535000Y-97568531D01*
X140535000Y-97353740D01*
X140477932Y-97066842D01*
X140365990Y-96796589D01*
X140203475Y-96553368D01*
X140121710Y-96471603D01*
X141701208Y-96471603D01*
X142550000Y-97320395D01*
X143398792Y-96471603D01*
X145201208Y-96471603D01*
X146050000Y-97320395D01*
X146898792Y-96471603D01*
X146821157Y-96222528D01*
X146557117Y-96096629D01*
X146273589Y-96024661D01*
X145981469Y-96009389D01*
X145691981Y-96051401D01*
X145416253Y-96149081D01*
X145278843Y-96222528D01*
X145201208Y-96471603D01*
X143398792Y-96471603D01*
X143321157Y-96222528D01*
X143057117Y-96096629D01*
X142773589Y-96024661D01*
X142481469Y-96009389D01*
X142191981Y-96051401D01*
X141916253Y-96149081D01*
X141778843Y-96222528D01*
X141701208Y-96471603D01*
X140121710Y-96471603D01*
X139996632Y-96346525D01*
X139753411Y-96184010D01*
X139483158Y-96072068D01*
X139196260Y-96015000D01*
X138903740Y-96015000D01*
X138616842Y-96072068D01*
X138346589Y-96184010D01*
X138103368Y-96346525D01*
X137896525Y-96553368D01*
X137734010Y-96796589D01*
X137622068Y-97066842D01*
X137565000Y-97353740D01*
X130384233Y-97353740D01*
X130554877Y-97098354D01*
X130729671Y-96676363D01*
X130818780Y-96228380D01*
X130818780Y-95771620D01*
X165231220Y-95771620D01*
X165231220Y-96228380D01*
X165320329Y-96676363D01*
X165495123Y-97098354D01*
X165748886Y-97478136D01*
X166071864Y-97801114D01*
X166451646Y-98054877D01*
X166873637Y-98229671D01*
X167321620Y-98318780D01*
X167778380Y-98318780D01*
X168226363Y-98229671D01*
X168648354Y-98054877D01*
X169028136Y-97801114D01*
X169351114Y-97478136D01*
X169604877Y-97098354D01*
X169779671Y-96676363D01*
X169868780Y-96228380D01*
X169868780Y-95771620D01*
X169779671Y-95323637D01*
X169604877Y-94901646D01*
X169351114Y-94521864D01*
X169028136Y-94198886D01*
X168648354Y-93945123D01*
X168226363Y-93770329D01*
X167778380Y-93681220D01*
X167321620Y-93681220D01*
X166873637Y-93770329D01*
X166451646Y-93945123D01*
X166071864Y-94198886D01*
X165748886Y-94521864D01*
X165495123Y-94901646D01*
X165320329Y-95323637D01*
X165231220Y-95771620D01*
X130818780Y-95771620D01*
X130729671Y-95323637D01*
X130554877Y-94901646D01*
X130301114Y-94521864D01*
X129978136Y-94198886D01*
X129598354Y-93945123D01*
X129176363Y-93770329D01*
X128728380Y-93681220D01*
X128271620Y-93681220D01*
X127823637Y-93770329D01*
X127401646Y-93945123D01*
X127021864Y-94198886D01*
X126698886Y-94521864D01*
X126445123Y-94901646D01*
X126270329Y-95323637D01*
X126181220Y-95771620D01*
X125660000Y-95771620D01*
X125660000Y-89040000D01*
X138707815Y-89040000D01*
X138736487Y-89331111D01*
X138821401Y-89611034D01*
X138959294Y-89869014D01*
X139144866Y-90095134D01*
X139370986Y-90280706D01*
X139628966Y-90418599D01*
X139908889Y-90503513D01*
X140127050Y-90525000D01*
X140272950Y-90525000D01*
X140491111Y-90503513D01*
X140771034Y-90418599D01*
X141029014Y-90280706D01*
X141255134Y-90095134D01*
X141440706Y-89869014D01*
X141475201Y-89804477D01*
X141544822Y-89921355D01*
X141739731Y-90137588D01*
X141973080Y-90311641D01*
X142235901Y-90436825D01*
X142383110Y-90481476D01*
X142613000Y-90360155D01*
X142613000Y-89167000D01*
X142867000Y-89167000D01*
X142867000Y-90360155D01*
X143096890Y-90481476D01*
X143244099Y-90436825D01*
X143506920Y-90311641D01*
X143740269Y-90137588D01*
X143935178Y-89921355D01*
X144010000Y-89795745D01*
X144084822Y-89921355D01*
X144279731Y-90137588D01*
X144513080Y-90311641D01*
X144775901Y-90436825D01*
X144923110Y-90481476D01*
X145153000Y-90360155D01*
X145153000Y-89167000D01*
X142867000Y-89167000D01*
X142613000Y-89167000D01*
X142593000Y-89167000D01*
X142593000Y-88913000D01*
X142613000Y-88913000D01*
X142613000Y-88893000D01*
X142867000Y-88893000D01*
X142867000Y-88913000D01*
X145153000Y-88913000D01*
X145153000Y-88893000D01*
X145407000Y-88893000D01*
X145407000Y-88913000D01*
X145427000Y-88913000D01*
X145427000Y-89167000D01*
X145407000Y-89167000D01*
X145407000Y-90360155D01*
X145636890Y-90481476D01*
X145784099Y-90436825D01*
X146046920Y-90311641D01*
X146280269Y-90137588D01*
X146475178Y-89921355D01*
X146544799Y-89804477D01*
X146579294Y-89869014D01*
X146764866Y-90095134D01*
X146990986Y-90280706D01*
X147248966Y-90418599D01*
X147528889Y-90503513D01*
X147747050Y-90525000D01*
X147892950Y-90525000D01*
X148111111Y-90503513D01*
X148391034Y-90418599D01*
X148649014Y-90280706D01*
X148875134Y-90095134D01*
X149060706Y-89869014D01*
X149090000Y-89814209D01*
X149119294Y-89869014D01*
X149304866Y-90095134D01*
X149530986Y-90280706D01*
X149788966Y-90418599D01*
X150068889Y-90503513D01*
X150287050Y-90525000D01*
X150432950Y-90525000D01*
X150651111Y-90503513D01*
X150931034Y-90418599D01*
X151189014Y-90280706D01*
X151415134Y-90095134D01*
X151600706Y-89869014D01*
X151630000Y-89814209D01*
X151659294Y-89869014D01*
X151844866Y-90095134D01*
X152070986Y-90280706D01*
X152328966Y-90418599D01*
X152608889Y-90503513D01*
X152827050Y-90525000D01*
X152972950Y-90525000D01*
X153191111Y-90503513D01*
X153471034Y-90418599D01*
X153729014Y-90280706D01*
X153955134Y-90095134D01*
X154140706Y-89869014D01*
X154170000Y-89814209D01*
X154199294Y-89869014D01*
X154384866Y-90095134D01*
X154610986Y-90280706D01*
X154868966Y-90418599D01*
X155148889Y-90503513D01*
X155367050Y-90525000D01*
X155512950Y-90525000D01*
X155731111Y-90503513D01*
X156011034Y-90418599D01*
X156269014Y-90280706D01*
X156495134Y-90095134D01*
X156680706Y-89869014D01*
X156818599Y-89611034D01*
X156903513Y-89331111D01*
X156932185Y-89040000D01*
X156903513Y-88748889D01*
X156818599Y-88468966D01*
X156680706Y-88210986D01*
X156495134Y-87984866D01*
X156269014Y-87799294D01*
X156214209Y-87770000D01*
X156269014Y-87740706D01*
X156495134Y-87555134D01*
X156680706Y-87329014D01*
X156818599Y-87071034D01*
X156903513Y-86791111D01*
X156932185Y-86500000D01*
X156903513Y-86208889D01*
X156818599Y-85928966D01*
X156680706Y-85670986D01*
X156495134Y-85444866D01*
X156269014Y-85259294D01*
X156011034Y-85121401D01*
X155731111Y-85036487D01*
X155512950Y-85015000D01*
X155367050Y-85015000D01*
X155148889Y-85036487D01*
X154868966Y-85121401D01*
X154610986Y-85259294D01*
X154384866Y-85444866D01*
X154199294Y-85670986D01*
X154170000Y-85725791D01*
X154140706Y-85670986D01*
X153955134Y-85444866D01*
X153729014Y-85259294D01*
X153471034Y-85121401D01*
X153191111Y-85036487D01*
X152972950Y-85015000D01*
X152827050Y-85015000D01*
X152608889Y-85036487D01*
X152328966Y-85121401D01*
X152070986Y-85259294D01*
X151844866Y-85444866D01*
X151659294Y-85670986D01*
X151630000Y-85725791D01*
X151600706Y-85670986D01*
X151415134Y-85444866D01*
X151189014Y-85259294D01*
X150931034Y-85121401D01*
X150651111Y-85036487D01*
X150432950Y-85015000D01*
X150287050Y-85015000D01*
X150068889Y-85036487D01*
X149788966Y-85121401D01*
X149530986Y-85259294D01*
X149304866Y-85444866D01*
X149119294Y-85670986D01*
X149090000Y-85725791D01*
X149060706Y-85670986D01*
X148875134Y-85444866D01*
X148649014Y-85259294D01*
X148391034Y-85121401D01*
X148111111Y-85036487D01*
X147892950Y-85015000D01*
X147747050Y-85015000D01*
X147528889Y-85036487D01*
X147248966Y-85121401D01*
X146990986Y-85259294D01*
X146764866Y-85444866D01*
X146579294Y-85670986D01*
X146550000Y-85725791D01*
X146520706Y-85670986D01*
X146335134Y-85444866D01*
X146109014Y-85259294D01*
X145851034Y-85121401D01*
X145571111Y-85036487D01*
X145352950Y-85015000D01*
X145207050Y-85015000D01*
X144988889Y-85036487D01*
X144708966Y-85121401D01*
X144450986Y-85259294D01*
X144224866Y-85444866D01*
X144039294Y-85670986D01*
X144010000Y-85725791D01*
X143980706Y-85670986D01*
X143795134Y-85444866D01*
X143569014Y-85259294D01*
X143311034Y-85121401D01*
X143031111Y-85036487D01*
X142812950Y-85015000D01*
X142667050Y-85015000D01*
X142448889Y-85036487D01*
X142168966Y-85121401D01*
X141910986Y-85259294D01*
X141684866Y-85444866D01*
X141660393Y-85474687D01*
X141639502Y-85405820D01*
X141580537Y-85295506D01*
X141501185Y-85198815D01*
X141404494Y-85119463D01*
X141294180Y-85060498D01*
X141174482Y-85024188D01*
X141050000Y-85011928D01*
X139350000Y-85011928D01*
X139225518Y-85024188D01*
X139105820Y-85060498D01*
X138995506Y-85119463D01*
X138898815Y-85198815D01*
X138819463Y-85295506D01*
X138760498Y-85405820D01*
X138724188Y-85525518D01*
X138711928Y-85650000D01*
X138711928Y-87350000D01*
X138724188Y-87474482D01*
X138760498Y-87594180D01*
X138819463Y-87704494D01*
X138898815Y-87801185D01*
X138995506Y-87880537D01*
X139105820Y-87939502D01*
X139174687Y-87960393D01*
X139144866Y-87984866D01*
X138959294Y-88210986D01*
X138821401Y-88468966D01*
X138736487Y-88748889D01*
X138707815Y-89040000D01*
X125660000Y-89040000D01*
X125660000Y-85482279D01*
X125688625Y-85190341D01*
X125764035Y-84940571D01*
X125886522Y-84710208D01*
X126051422Y-84508020D01*
X126252450Y-84341714D01*
X126481954Y-84217622D01*
X126731195Y-84140469D01*
X126859344Y-84127000D01*
X169141099Y-84127000D01*
X169259659Y-84138625D01*
X169259659Y-84138625D01*
G37*
X169259659Y-84138625D02*
X169509429Y-84214035D01*
X169739792Y-84336522D01*
X169941980Y-84501422D01*
X170108286Y-84702450D01*
X170232378Y-84931954D01*
X170309531Y-85181195D01*
X170340000Y-85471089D01*
X170340001Y-99967581D01*
X170340000Y-102967721D01*
X170311375Y-103259660D01*
X170235965Y-103509429D01*
X170113477Y-103739794D01*
X169948579Y-103941979D01*
X169747546Y-104108288D01*
X169518046Y-104232378D01*
X169268805Y-104309531D01*
X168978911Y-104340000D01*
X127032279Y-104340000D01*
X126740340Y-104311375D01*
X126490571Y-104235965D01*
X126260206Y-104113477D01*
X126058021Y-103948579D01*
X125891712Y-103747546D01*
X125767622Y-103518046D01*
X125690469Y-103268805D01*
X125660000Y-102978911D01*
X125660000Y-100353740D01*
X135815000Y-100353740D01*
X135815000Y-100646260D01*
X135872068Y-100933158D01*
X135984010Y-101203411D01*
X136146525Y-101446632D01*
X136353368Y-101653475D01*
X136596589Y-101815990D01*
X136866842Y-101927932D01*
X137153740Y-101985000D01*
X137446260Y-101985000D01*
X137733158Y-101927932D01*
X138003411Y-101815990D01*
X138246632Y-101653475D01*
X138453475Y-101446632D01*
X138615990Y-101203411D01*
X138727932Y-100933158D01*
X138785000Y-100646260D01*
X138785000Y-100353740D01*
X139315000Y-100353740D01*
X139315000Y-100646260D01*
X139372068Y-100933158D01*
X139484010Y-101203411D01*
X139646525Y-101446632D01*
X139853368Y-101653475D01*
X140096589Y-101815990D01*
X140366842Y-101927932D01*
X140653740Y-101985000D01*
X140946260Y-101985000D01*
X141233158Y-101927932D01*
X141503411Y-101815990D01*
X141746632Y-101653475D01*
X141953475Y-101446632D01*
X142115990Y-101203411D01*
X142227932Y-100933158D01*
X142285000Y-100646260D01*
X142285000Y-100353740D01*
X142815000Y-100353740D01*
X142815000Y-100646260D01*
X142872068Y-100933158D01*
X142984010Y-101203411D01*
X143146525Y-101446632D01*
X143353368Y-101653475D01*
X143596589Y-101815990D01*
X143866842Y-101927932D01*
X144153740Y-101985000D01*
X144446260Y-101985000D01*
X144733158Y-101927932D01*
X145003411Y-101815990D01*
X145246632Y-101653475D01*
X145453475Y-101446632D01*
X145615990Y-101203411D01*
X145727932Y-100933158D01*
X145785000Y-100646260D01*
X145785000Y-100353740D01*
X146315000Y-100353740D01*
X146315000Y-100646260D01*
X146372068Y-100933158D01*
X146484010Y-101203411D01*
X146646525Y-101446632D01*
X146853368Y-101653475D01*
X147096589Y-101815990D01*
X147366842Y-101927932D01*
X147653740Y-101985000D01*
X147946260Y-101985000D01*
X148233158Y-101927932D01*
X148503411Y-101815990D01*
X148746632Y-101653475D01*
X148953475Y-101446632D01*
X149115990Y-101203411D01*
X149227932Y-100933158D01*
X149285000Y-100646260D01*
X149285000Y-100353740D01*
X149815000Y-100353740D01*
X149815000Y-100646260D01*
X149872068Y-100933158D01*
X149984010Y-101203411D01*
X150146525Y-101446632D01*
X150353368Y-101653475D01*
X150596589Y-101815990D01*
X150866842Y-101927932D01*
X151153740Y-101985000D01*
X151446260Y-101985000D01*
X151733158Y-101927932D01*
X152003411Y-101815990D01*
X152246632Y-101653475D01*
X152453475Y-101446632D01*
X152615990Y-101203411D01*
X152727932Y-100933158D01*
X152785000Y-100646260D01*
X152785000Y-100353740D01*
X153315000Y-100353740D01*
X153315000Y-100646260D01*
X153372068Y-100933158D01*
X153484010Y-101203411D01*
X153646525Y-101446632D01*
X153853368Y-101653475D01*
X154096589Y-101815990D01*
X154366842Y-101927932D01*
X154653740Y-101985000D01*
X154946260Y-101985000D01*
X155233158Y-101927932D01*
X155503411Y-101815990D01*
X155746632Y-101653475D01*
X155953475Y-101446632D01*
X156115990Y-101203411D01*
X156227932Y-100933158D01*
X156285000Y-100646260D01*
X156285000Y-100353740D01*
X156815000Y-100353740D01*
X156815000Y-100646260D01*
X156872068Y-100933158D01*
X156984010Y-101203411D01*
X157146525Y-101446632D01*
X157353368Y-101653475D01*
X157596589Y-101815990D01*
X157866842Y-101927932D01*
X158153740Y-101985000D01*
X158446260Y-101985000D01*
X158733158Y-101927932D01*
X159003411Y-101815990D01*
X159246632Y-101653475D01*
X159453475Y-101446632D01*
X159615990Y-101203411D01*
X159727932Y-100933158D01*
X159785000Y-100646260D01*
X159785000Y-100353740D01*
X159727932Y-100066842D01*
X159615990Y-99796589D01*
X159453475Y-99553368D01*
X159246632Y-99346525D01*
X159003411Y-99184010D01*
X158733158Y-99072068D01*
X158446260Y-99015000D01*
X158153740Y-99015000D01*
X157866842Y-99072068D01*
X157596589Y-99184010D01*
X157353368Y-99346525D01*
X157146525Y-99553368D01*
X156984010Y-99796589D01*
X156872068Y-100066842D01*
X156815000Y-100353740D01*
X156285000Y-100353740D01*
X156227932Y-100066842D01*
X156115990Y-99796589D01*
X155953475Y-99553368D01*
X155746632Y-99346525D01*
X155503411Y-99184010D01*
X155233158Y-99072068D01*
X154946260Y-99015000D01*
X154653740Y-99015000D01*
X154366842Y-99072068D01*
X154096589Y-99184010D01*
X153853368Y-99346525D01*
X153646525Y-99553368D01*
X153484010Y-99796589D01*
X153372068Y-100066842D01*
X153315000Y-100353740D01*
X152785000Y-100353740D01*
X152727932Y-100066842D01*
X152615990Y-99796589D01*
X152453475Y-99553368D01*
X152246632Y-99346525D01*
X152003411Y-99184010D01*
X151733158Y-99072068D01*
X151446260Y-99015000D01*
X151153740Y-99015000D01*
X150866842Y-99072068D01*
X150596589Y-99184010D01*
X150353368Y-99346525D01*
X150146525Y-99553368D01*
X149984010Y-99796589D01*
X149872068Y-100066842D01*
X149815000Y-100353740D01*
X149285000Y-100353740D01*
X149227932Y-100066842D01*
X149115990Y-99796589D01*
X148953475Y-99553368D01*
X148746632Y-99346525D01*
X148503411Y-99184010D01*
X148233158Y-99072068D01*
X147946260Y-99015000D01*
X147653740Y-99015000D01*
X147366842Y-99072068D01*
X147096589Y-99184010D01*
X146853368Y-99346525D01*
X146646525Y-99553368D01*
X146484010Y-99796589D01*
X146372068Y-100066842D01*
X146315000Y-100353740D01*
X145785000Y-100353740D01*
X145727932Y-100066842D01*
X145615990Y-99796589D01*
X145453475Y-99553368D01*
X145246632Y-99346525D01*
X145003411Y-99184010D01*
X144733158Y-99072068D01*
X144446260Y-99015000D01*
X144153740Y-99015000D01*
X143866842Y-99072068D01*
X143596589Y-99184010D01*
X143353368Y-99346525D01*
X143146525Y-99553368D01*
X142984010Y-99796589D01*
X142872068Y-100066842D01*
X142815000Y-100353740D01*
X142285000Y-100353740D01*
X142227932Y-100066842D01*
X142115990Y-99796589D01*
X141953475Y-99553368D01*
X141746632Y-99346525D01*
X141503411Y-99184010D01*
X141233158Y-99072068D01*
X140946260Y-99015000D01*
X140653740Y-99015000D01*
X140366842Y-99072068D01*
X140096589Y-99184010D01*
X139853368Y-99346525D01*
X139646525Y-99553368D01*
X139484010Y-99796589D01*
X139372068Y-100066842D01*
X139315000Y-100353740D01*
X138785000Y-100353740D01*
X138727932Y-100066842D01*
X138615990Y-99796589D01*
X138453475Y-99553368D01*
X138246632Y-99346525D01*
X138003411Y-99184010D01*
X137733158Y-99072068D01*
X137446260Y-99015000D01*
X137153740Y-99015000D01*
X136866842Y-99072068D01*
X136596589Y-99184010D01*
X136353368Y-99346525D01*
X136146525Y-99553368D01*
X135984010Y-99796589D01*
X135872068Y-100066842D01*
X135815000Y-100353740D01*
X125660000Y-100353740D01*
X125660000Y-95771620D01*
X126181220Y-95771620D01*
X126181220Y-96228380D01*
X126270329Y-96676363D01*
X126445123Y-97098354D01*
X126698886Y-97478136D01*
X127021864Y-97801114D01*
X127401646Y-98054877D01*
X127823637Y-98229671D01*
X128271620Y-98318780D01*
X128728380Y-98318780D01*
X129176363Y-98229671D01*
X129598354Y-98054877D01*
X129978136Y-97801114D01*
X130301114Y-97478136D01*
X130384233Y-97353740D01*
X137565000Y-97353740D01*
X137565000Y-97646260D01*
X137622068Y-97933158D01*
X137734010Y-98203411D01*
X137896525Y-98446632D01*
X138103368Y-98653475D01*
X138346589Y-98815990D01*
X138616842Y-98927932D01*
X138903740Y-98985000D01*
X139196260Y-98985000D01*
X139483158Y-98927932D01*
X139753411Y-98815990D01*
X139996632Y-98653475D01*
X140121710Y-98528397D01*
X141701208Y-98528397D01*
X141778843Y-98777472D01*
X142042883Y-98903371D01*
X142326411Y-98975339D01*
X142618531Y-98990611D01*
X142908019Y-98948599D01*
X143183747Y-98850919D01*
X143321157Y-98777472D01*
X143398792Y-98528397D01*
X145201208Y-98528397D01*
X145278843Y-98777472D01*
X145542883Y-98903371D01*
X145826411Y-98975339D01*
X146118531Y-98990611D01*
X146408019Y-98948599D01*
X146683747Y-98850919D01*
X146821157Y-98777472D01*
X146898792Y-98528397D01*
X146050000Y-97679605D01*
X145201208Y-98528397D01*
X143398792Y-98528397D01*
X142550000Y-97679605D01*
X141701208Y-98528397D01*
X140121710Y-98528397D01*
X140203475Y-98446632D01*
X140365990Y-98203411D01*
X140477932Y-97933158D01*
X140535000Y-97646260D01*
X140535000Y-97568531D01*
X141059389Y-97568531D01*
X141101401Y-97858019D01*
X141199081Y-98133747D01*
X141272528Y-98271157D01*
X141521603Y-98348792D01*
X142370395Y-97500000D01*
X142729605Y-97500000D01*
X143578397Y-98348792D01*
X143827472Y-98271157D01*
X143953371Y-98007117D01*
X144025339Y-97723589D01*
X144033445Y-97568531D01*
X144559389Y-97568531D01*
X144601401Y-97858019D01*
X144699081Y-98133747D01*
X144772528Y-98271157D01*
X145021603Y-98348792D01*
X145870395Y-97500000D01*
X146229605Y-97500000D01*
X147078397Y-98348792D01*
X147327472Y-98271157D01*
X147453371Y-98007117D01*
X147525339Y-97723589D01*
X147540611Y-97431469D01*
X147529331Y-97353740D01*
X148065000Y-97353740D01*
X148065000Y-97646260D01*
X148122068Y-97933158D01*
X148234010Y-98203411D01*
X148396525Y-98446632D01*
X148603368Y-98653475D01*
X148846589Y-98815990D01*
X149116842Y-98927932D01*
X149403740Y-98985000D01*
X149696260Y-98985000D01*
X149983158Y-98927932D01*
X150253411Y-98815990D01*
X150496632Y-98653475D01*
X150703475Y-98446632D01*
X150865990Y-98203411D01*
X150977932Y-97933158D01*
X151035000Y-97646260D01*
X151035000Y-97353740D01*
X151565000Y-97353740D01*
X151565000Y-97646260D01*
X151622068Y-97933158D01*
X151734010Y-98203411D01*
X151896525Y-98446632D01*
X152103368Y-98653475D01*
X152346589Y-98815990D01*
X152616842Y-98927932D01*
X152903740Y-98985000D01*
X153196260Y-98985000D01*
X153483158Y-98927932D01*
X153753411Y-98815990D01*
X153996632Y-98653475D01*
X154203475Y-98446632D01*
X154365990Y-98203411D01*
X154477932Y-97933158D01*
X154535000Y-97646260D01*
X154535000Y-97353740D01*
X155065000Y-97353740D01*
X155065000Y-97646260D01*
X155122068Y-97933158D01*
X155234010Y-98203411D01*
X155396525Y-98446632D01*
X155603368Y-98653475D01*
X155846589Y-98815990D01*
X156116842Y-98927932D01*
X156403740Y-98985000D01*
X156696260Y-98985000D01*
X156983158Y-98927932D01*
X157253411Y-98815990D01*
X157496632Y-98653475D01*
X157703475Y-98446632D01*
X157865990Y-98203411D01*
X157977932Y-97933158D01*
X158035000Y-97646260D01*
X158035000Y-97353740D01*
X157977932Y-97066842D01*
X157865990Y-96796589D01*
X157703475Y-96553368D01*
X157496632Y-96346525D01*
X157253411Y-96184010D01*
X156983158Y-96072068D01*
X156696260Y-96015000D01*
X156403740Y-96015000D01*
X156116842Y-96072068D01*
X155846589Y-96184010D01*
X155603368Y-96346525D01*
X155396525Y-96553368D01*
X155234010Y-96796589D01*
X155122068Y-97066842D01*
X155065000Y-97353740D01*
X154535000Y-97353740D01*
X154477932Y-97066842D01*
X154365990Y-96796589D01*
X154203475Y-96553368D01*
X153996632Y-96346525D01*
X153753411Y-96184010D01*
X153483158Y-96072068D01*
X153196260Y-96015000D01*
X152903740Y-96015000D01*
X152616842Y-96072068D01*
X152346589Y-96184010D01*
X152103368Y-96346525D01*
X151896525Y-96553368D01*
X151734010Y-96796589D01*
X151622068Y-97066842D01*
X151565000Y-97353740D01*
X151035000Y-97353740D01*
X150977932Y-97066842D01*
X150865990Y-96796589D01*
X150703475Y-96553368D01*
X150496632Y-96346525D01*
X150253411Y-96184010D01*
X149983158Y-96072068D01*
X149696260Y-96015000D01*
X149403740Y-96015000D01*
X149116842Y-96072068D01*
X148846589Y-96184010D01*
X148603368Y-96346525D01*
X148396525Y-96553368D01*
X148234010Y-96796589D01*
X148122068Y-97066842D01*
X148065000Y-97353740D01*
X147529331Y-97353740D01*
X147498599Y-97141981D01*
X147400919Y-96866253D01*
X147327472Y-96728843D01*
X147078397Y-96651208D01*
X146229605Y-97500000D01*
X145870395Y-97500000D01*
X145021603Y-96651208D01*
X144772528Y-96728843D01*
X144646629Y-96992883D01*
X144574661Y-97276411D01*
X144559389Y-97568531D01*
X144033445Y-97568531D01*
X144040611Y-97431469D01*
X143998599Y-97141981D01*
X143900919Y-96866253D01*
X143827472Y-96728843D01*
X143578397Y-96651208D01*
X142729605Y-97500000D01*
X142370395Y-97500000D01*
X141521603Y-96651208D01*
X141272528Y-96728843D01*
X141146629Y-96992883D01*
X141074661Y-97276411D01*
X141059389Y-97568531D01*
X140535000Y-97568531D01*
X140535000Y-97353740D01*
X140477932Y-97066842D01*
X140365990Y-96796589D01*
X140203475Y-96553368D01*
X140121710Y-96471603D01*
X141701208Y-96471603D01*
X142550000Y-97320395D01*
X143398792Y-96471603D01*
X145201208Y-96471603D01*
X146050000Y-97320395D01*
X146898792Y-96471603D01*
X146821157Y-96222528D01*
X146557117Y-96096629D01*
X146273589Y-96024661D01*
X145981469Y-96009389D01*
X145691981Y-96051401D01*
X145416253Y-96149081D01*
X145278843Y-96222528D01*
X145201208Y-96471603D01*
X143398792Y-96471603D01*
X143321157Y-96222528D01*
X143057117Y-96096629D01*
X142773589Y-96024661D01*
X142481469Y-96009389D01*
X142191981Y-96051401D01*
X141916253Y-96149081D01*
X141778843Y-96222528D01*
X141701208Y-96471603D01*
X140121710Y-96471603D01*
X139996632Y-96346525D01*
X139753411Y-96184010D01*
X139483158Y-96072068D01*
X139196260Y-96015000D01*
X138903740Y-96015000D01*
X138616842Y-96072068D01*
X138346589Y-96184010D01*
X138103368Y-96346525D01*
X137896525Y-96553368D01*
X137734010Y-96796589D01*
X137622068Y-97066842D01*
X137565000Y-97353740D01*
X130384233Y-97353740D01*
X130554877Y-97098354D01*
X130729671Y-96676363D01*
X130818780Y-96228380D01*
X130818780Y-95771620D01*
X165231220Y-95771620D01*
X165231220Y-96228380D01*
X165320329Y-96676363D01*
X165495123Y-97098354D01*
X165748886Y-97478136D01*
X166071864Y-97801114D01*
X166451646Y-98054877D01*
X166873637Y-98229671D01*
X167321620Y-98318780D01*
X167778380Y-98318780D01*
X168226363Y-98229671D01*
X168648354Y-98054877D01*
X169028136Y-97801114D01*
X169351114Y-97478136D01*
X169604877Y-97098354D01*
X169779671Y-96676363D01*
X169868780Y-96228380D01*
X169868780Y-95771620D01*
X169779671Y-95323637D01*
X169604877Y-94901646D01*
X169351114Y-94521864D01*
X169028136Y-94198886D01*
X168648354Y-93945123D01*
X168226363Y-93770329D01*
X167778380Y-93681220D01*
X167321620Y-93681220D01*
X166873637Y-93770329D01*
X166451646Y-93945123D01*
X166071864Y-94198886D01*
X165748886Y-94521864D01*
X165495123Y-94901646D01*
X165320329Y-95323637D01*
X165231220Y-95771620D01*
X130818780Y-95771620D01*
X130729671Y-95323637D01*
X130554877Y-94901646D01*
X130301114Y-94521864D01*
X129978136Y-94198886D01*
X129598354Y-93945123D01*
X129176363Y-93770329D01*
X128728380Y-93681220D01*
X128271620Y-93681220D01*
X127823637Y-93770329D01*
X127401646Y-93945123D01*
X127021864Y-94198886D01*
X126698886Y-94521864D01*
X126445123Y-94901646D01*
X126270329Y-95323637D01*
X126181220Y-95771620D01*
X125660000Y-95771620D01*
X125660000Y-89040000D01*
X138707815Y-89040000D01*
X138736487Y-89331111D01*
X138821401Y-89611034D01*
X138959294Y-89869014D01*
X139144866Y-90095134D01*
X139370986Y-90280706D01*
X139628966Y-90418599D01*
X139908889Y-90503513D01*
X140127050Y-90525000D01*
X140272950Y-90525000D01*
X140491111Y-90503513D01*
X140771034Y-90418599D01*
X141029014Y-90280706D01*
X141255134Y-90095134D01*
X141440706Y-89869014D01*
X141475201Y-89804477D01*
X141544822Y-89921355D01*
X141739731Y-90137588D01*
X141973080Y-90311641D01*
X142235901Y-90436825D01*
X142383110Y-90481476D01*
X142613000Y-90360155D01*
X142613000Y-89167000D01*
X142867000Y-89167000D01*
X142867000Y-90360155D01*
X143096890Y-90481476D01*
X143244099Y-90436825D01*
X143506920Y-90311641D01*
X143740269Y-90137588D01*
X143935178Y-89921355D01*
X144010000Y-89795745D01*
X144084822Y-89921355D01*
X144279731Y-90137588D01*
X144513080Y-90311641D01*
X144775901Y-90436825D01*
X144923110Y-90481476D01*
X145153000Y-90360155D01*
X145153000Y-89167000D01*
X142867000Y-89167000D01*
X142613000Y-89167000D01*
X142593000Y-89167000D01*
X142593000Y-88913000D01*
X142613000Y-88913000D01*
X142613000Y-88893000D01*
X142867000Y-88893000D01*
X142867000Y-88913000D01*
X145153000Y-88913000D01*
X145153000Y-88893000D01*
X145407000Y-88893000D01*
X145407000Y-88913000D01*
X145427000Y-88913000D01*
X145427000Y-89167000D01*
X145407000Y-89167000D01*
X145407000Y-90360155D01*
X145636890Y-90481476D01*
X145784099Y-90436825D01*
X146046920Y-90311641D01*
X146280269Y-90137588D01*
X146475178Y-89921355D01*
X146544799Y-89804477D01*
X146579294Y-89869014D01*
X146764866Y-90095134D01*
X146990986Y-90280706D01*
X147248966Y-90418599D01*
X147528889Y-90503513D01*
X147747050Y-90525000D01*
X147892950Y-90525000D01*
X148111111Y-90503513D01*
X148391034Y-90418599D01*
X148649014Y-90280706D01*
X148875134Y-90095134D01*
X149060706Y-89869014D01*
X149090000Y-89814209D01*
X149119294Y-89869014D01*
X149304866Y-90095134D01*
X149530986Y-90280706D01*
X149788966Y-90418599D01*
X150068889Y-90503513D01*
X150287050Y-90525000D01*
X150432950Y-90525000D01*
X150651111Y-90503513D01*
X150931034Y-90418599D01*
X151189014Y-90280706D01*
X151415134Y-90095134D01*
X151600706Y-89869014D01*
X151630000Y-89814209D01*
X151659294Y-89869014D01*
X151844866Y-90095134D01*
X152070986Y-90280706D01*
X152328966Y-90418599D01*
X152608889Y-90503513D01*
X152827050Y-90525000D01*
X152972950Y-90525000D01*
X153191111Y-90503513D01*
X153471034Y-90418599D01*
X153729014Y-90280706D01*
X153955134Y-90095134D01*
X154140706Y-89869014D01*
X154170000Y-89814209D01*
X154199294Y-89869014D01*
X154384866Y-90095134D01*
X154610986Y-90280706D01*
X154868966Y-90418599D01*
X155148889Y-90503513D01*
X155367050Y-90525000D01*
X155512950Y-90525000D01*
X155731111Y-90503513D01*
X156011034Y-90418599D01*
X156269014Y-90280706D01*
X156495134Y-90095134D01*
X156680706Y-89869014D01*
X156818599Y-89611034D01*
X156903513Y-89331111D01*
X156932185Y-89040000D01*
X156903513Y-88748889D01*
X156818599Y-88468966D01*
X156680706Y-88210986D01*
X156495134Y-87984866D01*
X156269014Y-87799294D01*
X156214209Y-87770000D01*
X156269014Y-87740706D01*
X156495134Y-87555134D01*
X156680706Y-87329014D01*
X156818599Y-87071034D01*
X156903513Y-86791111D01*
X156932185Y-86500000D01*
X156903513Y-86208889D01*
X156818599Y-85928966D01*
X156680706Y-85670986D01*
X156495134Y-85444866D01*
X156269014Y-85259294D01*
X156011034Y-85121401D01*
X155731111Y-85036487D01*
X155512950Y-85015000D01*
X155367050Y-85015000D01*
X155148889Y-85036487D01*
X154868966Y-85121401D01*
X154610986Y-85259294D01*
X154384866Y-85444866D01*
X154199294Y-85670986D01*
X154170000Y-85725791D01*
X154140706Y-85670986D01*
X153955134Y-85444866D01*
X153729014Y-85259294D01*
X153471034Y-85121401D01*
X153191111Y-85036487D01*
X152972950Y-85015000D01*
X152827050Y-85015000D01*
X152608889Y-85036487D01*
X152328966Y-85121401D01*
X152070986Y-85259294D01*
X151844866Y-85444866D01*
X151659294Y-85670986D01*
X151630000Y-85725791D01*
X151600706Y-85670986D01*
X151415134Y-85444866D01*
X151189014Y-85259294D01*
X150931034Y-85121401D01*
X150651111Y-85036487D01*
X150432950Y-85015000D01*
X150287050Y-85015000D01*
X150068889Y-85036487D01*
X149788966Y-85121401D01*
X149530986Y-85259294D01*
X149304866Y-85444866D01*
X149119294Y-85670986D01*
X149090000Y-85725791D01*
X149060706Y-85670986D01*
X148875134Y-85444866D01*
X148649014Y-85259294D01*
X148391034Y-85121401D01*
X148111111Y-85036487D01*
X147892950Y-85015000D01*
X147747050Y-85015000D01*
X147528889Y-85036487D01*
X147248966Y-85121401D01*
X146990986Y-85259294D01*
X146764866Y-85444866D01*
X146579294Y-85670986D01*
X146550000Y-85725791D01*
X146520706Y-85670986D01*
X146335134Y-85444866D01*
X146109014Y-85259294D01*
X145851034Y-85121401D01*
X145571111Y-85036487D01*
X145352950Y-85015000D01*
X145207050Y-85015000D01*
X144988889Y-85036487D01*
X144708966Y-85121401D01*
X144450986Y-85259294D01*
X144224866Y-85444866D01*
X144039294Y-85670986D01*
X144010000Y-85725791D01*
X143980706Y-85670986D01*
X143795134Y-85444866D01*
X143569014Y-85259294D01*
X143311034Y-85121401D01*
X143031111Y-85036487D01*
X142812950Y-85015000D01*
X142667050Y-85015000D01*
X142448889Y-85036487D01*
X142168966Y-85121401D01*
X141910986Y-85259294D01*
X141684866Y-85444866D01*
X141660393Y-85474687D01*
X141639502Y-85405820D01*
X141580537Y-85295506D01*
X141501185Y-85198815D01*
X141404494Y-85119463D01*
X141294180Y-85060498D01*
X141174482Y-85024188D01*
X141050000Y-85011928D01*
X139350000Y-85011928D01*
X139225518Y-85024188D01*
X139105820Y-85060498D01*
X138995506Y-85119463D01*
X138898815Y-85198815D01*
X138819463Y-85295506D01*
X138760498Y-85405820D01*
X138724188Y-85525518D01*
X138711928Y-85650000D01*
X138711928Y-87350000D01*
X138724188Y-87474482D01*
X138760498Y-87594180D01*
X138819463Y-87704494D01*
X138898815Y-87801185D01*
X138995506Y-87880537D01*
X139105820Y-87939502D01*
X139174687Y-87960393D01*
X139144866Y-87984866D01*
X138959294Y-88210986D01*
X138821401Y-88468966D01*
X138736487Y-88748889D01*
X138707815Y-89040000D01*
X125660000Y-89040000D01*
X125660000Y-85482279D01*
X125688625Y-85190341D01*
X125764035Y-84940571D01*
X125886522Y-84710208D01*
X126051422Y-84508020D01*
X126252450Y-84341714D01*
X126481954Y-84217622D01*
X126731195Y-84140469D01*
X126859344Y-84127000D01*
X169141099Y-84127000D01*
X169259659Y-84138625D01*
M02*
